<svg id="Layer_1" data-name="Layer 1" xmlns="http://www.w3.org/2000/svg" viewBox="0 0 512 182"><defs><style>.cls-1{fill:#fff;}</style></defs><title>Marca Horizontal Fundo Transparente Branco</title><path class="cls-1" d="M334.44,91.29V104.8a.15.15,0,0,0,.15.15,5.84,5.84,0,0,0,5.84-5.82V91.29c0-3.94,3.87-7.15,8.62-7.15v-6C341,78.17,334.44,84.06,334.44,91.29Z"/><path class="cls-1" d="M317.71,78.24a10.43,10.43,0,0,0-8.68,4V78.38a.14.14,0,0,0-.15-.14h-5.44a.15.15,0,0,0-.15.14v35.87a.15.15,0,0,0,.15.14,5.6,5.6,0,0,0,5.59-5.61v-7.73a10.48,10.48,0,0,0,8.68,3.94,12,12,0,0,0,9-3.87,14,14,0,0,0,0-19A12,12,0,0,0,317.71,78.24Zm7,13.37a7.73,7.73,0,0,1-2.23,5.66,8.1,8.1,0,0,1-11.18,0,8.29,8.29,0,0,1,0-11.31,8.07,8.07,0,0,1,11.18,0A7.72,7.72,0,0,1,324.67,91.61Z"/><path class="cls-1" d="M184.42,90.28l-3.94-1.23a19.48,19.48,0,0,1-3.27-1.31,2,2,0,0,1-.32-3.65,4.56,4.56,0,0,1,2.5-.65,4.51,4.51,0,0,1,4.52,2.77.14.14,0,0,0,.09.08.17.17,0,0,0,.12,0l4.51-2.56a.14.14,0,0,0,.06-.19,9.52,9.52,0,0,0-3.75-3.9,11.1,11.1,0,0,0-5.55-1.39,10.22,10.22,0,0,0-6.57,2.13,7,7,0,0,0-2.65,5.68,6.41,6.41,0,0,0,1.39,4.23,7.26,7.26,0,0,0,3.46,2.3L179,93.81a18.46,18.46,0,0,1,3.26,1.34A2.09,2.09,0,0,1,183.51,97c0,1.79-1.34,2.66-4.07,2.66s-4.53-1.15-5.37-3.51A.14.14,0,0,0,174,96a.17.17,0,0,0-.12,0l-4.61,2.71a.13.13,0,0,0-.06.18,9.21,9.21,0,0,0,3.87,4.38,12.44,12.44,0,0,0,6.38,1.57,11.44,11.44,0,0,0,7-2.08,7.46,7.46,0,0,0,1.43-10.16A7,7,0,0,0,184.42,90.28Z"/><path class="cls-1" d="M217.62,78.23h-5.77a.14.14,0,0,0-.14.14V91.79c0,2.54-.62,4.45-1.83,5.68a6.51,6.51,0,0,1-4.81,1.84,5.82,5.82,0,0,1-4.27-1.55,6.1,6.1,0,0,1-1.56-4.48V78.37a.14.14,0,0,0-.14-.14h-5.77a.14.14,0,0,0-.14.14v15.5a11.25,11.25,0,0,0,2.87,8.14,10,10,0,0,0,7.52,3c3.62,0,6.35-1.27,8.13-3.77v3.62a.15.15,0,0,0,.14.15h5.77a.15.15,0,0,0,.14-.15V78.37A.14.14,0,0,0,217.62,78.23Z"/><path class="cls-1" d="M266.87,78.24a13.51,13.51,0,0,0-9.62,22.93,13.68,13.68,0,0,0,10,3.78c4.9,0,8.65-1.86,11.16-5.54a.14.14,0,0,0,0-.11.16.16,0,0,0-.07-.09l-4.48-2.62a.16.16,0,0,0-.2,0,7.28,7.28,0,0,1-6.37,3,8.81,8.81,0,0,1-5.21-1.51,6.71,6.71,0,0,1-2.67-4.13h19.86a.15.15,0,0,0,.15-.12,17.71,17.71,0,0,0,.2-2.28,13.62,13.62,0,0,0-3.59-9.5A12,12,0,0,0,266.87,78.24Zm7,11.1H259.4a7.22,7.22,0,0,1,2.48-4.26,7.54,7.54,0,0,1,4.94-1.63A7.24,7.24,0,0,1,271.39,85,7.08,7.08,0,0,1,273.85,89.34Z"/><path class="cls-1" d="M399.15,78.16h-6.43V70.9a.16.16,0,0,0-.06-.12.19.19,0,0,0-.13,0l-5.73,1.7a.13.13,0,0,0-.1.14v5.56h-3a.15.15,0,0,0-.12.07l-3.68,5.5a.16.16,0,0,0,0,.15.16.16,0,0,0,.13.08h6.64V96.35c0,3.49,1,5.93,2.93,7.24a10.86,10.86,0,0,0,6,1.39,30.16,30.16,0,0,0,3.51-.23.15.15,0,0,0,.13-.14V99.47a.12.12,0,0,0-.05-.1.14.14,0,0,0-.11,0c-1.43.07-2.65.07-3.62,0a3.17,3.17,0,0,1-2.1-.75,3,3,0,0,1-.7-2.25V84h6.43a.15.15,0,0,0,.15-.15v-5.5A.15.15,0,0,0,399.15,78.16Z"/><path class="cls-1" d="M434.7,95.51a.14.14,0,0,0-.11,0,.16.16,0,0,0-.09.07,6.78,6.78,0,0,1-2.65,2.77,7.6,7.6,0,0,1-3.94,1,7.44,7.44,0,0,1-5.48-2.23,8.09,8.09,0,0,1,0-11.09,7.47,7.47,0,0,1,5.48-2.22,7.62,7.62,0,0,1,3.94,1,6.37,6.37,0,0,1,2.55,2.79.16.16,0,0,0,.09.07.11.11,0,0,0,.11,0L439.3,85a.14.14,0,0,0,.06-.19,11.6,11.6,0,0,0-4.6-4.8,13.38,13.38,0,0,0-6.8-1.78,13.4,13.4,0,1,0,0,26.8,13.4,13.4,0,0,0,6.8-1.78,12.31,12.31,0,0,0,4.7-4.85.14.14,0,0,0-.06-.19Z"/><path class="cls-1" d="M465.61,82a13.7,13.7,0,0,0-19,0,13.45,13.45,0,0,0,0,19,13.7,13.7,0,0,0,19,0,13.52,13.52,0,0,0,0-19Zm-17.24,9.49a7.6,7.6,0,0,1,2.22-5.57,7.78,7.78,0,1,1,0,11.14h0A7.55,7.55,0,0,1,448.37,91.51Z"/><rect class="cls-1" x="404.19" y="78.24" width="6.08" height="26.74" rx="0.15"/><rect class="cls-1" x="404.19" y="67.6" width="6.08" height="5.96" rx="0.15"/><path class="cls-1" d="M237.08,78.3a10.41,10.41,0,0,0-8.67,4V78.45a.15.15,0,0,0-.14-.15h-5.44a.15.15,0,0,0-.15.15v35.8a.15.15,0,0,0,.15.15,5.59,5.59,0,0,0,5.58-5.6v-7.72a10.45,10.45,0,0,0,8.67,3.93,12,12,0,0,0,9-3.86,13.94,13.94,0,0,0,0-19A12,12,0,0,0,237.08,78.3ZM244,91.66a7.71,7.71,0,0,1-2.22,5.64,8.08,8.08,0,0,1-11.17,0,8.26,8.26,0,0,1,0-11.29,8.08,8.08,0,0,1,11.17,0A7.75,7.75,0,0,1,244,91.66Z"/><path class="cls-1" d="M377,78.24h-5.46a.15.15,0,0,0-.15.14v3.79a10.5,10.5,0,0,0-8.7-3.93,12.14,12.14,0,0,0-9,3.86,13.92,13.92,0,0,0,0,19,12.09,12.09,0,0,0,9,3.88,10.43,10.43,0,0,0,8.7-4v3.84a.15.15,0,0,0,.15.14H377a.14.14,0,0,0,.14-.14V78.38A.14.14,0,0,0,377,78.24ZM363.59,99.49a7.9,7.9,0,1,1,5.61-13.55,7.9,7.9,0,0,1-5.61,13.55Z"/><path class="cls-1" d="M358.35,74.6H369.6a.15.15,0,0,0,.15-.15V67.74a.14.14,0,0,0-.06-.11.16.16,0,0,0-.13,0l-8,2.37a4.7,4.7,0,0,0-3.35,4.48A.15.15,0,0,0,358.35,74.6Z"/><path class="cls-1" d="M284.15,91.61V104.8a.15.15,0,0,0,.15.15,5.7,5.7,0,0,0,5.7-5.68V91.61c0-3.84,3.78-7,8.42-7V78.8C290.55,78.8,284.15,84.55,284.15,91.61Z"/><path class="cls-1" d="M140.05,90.93h-.15l.15,0v-.2h0a49.39,49.39,0,0,0-.53-6.81.78.78,0,0,0-.77-.66H115.17a.26.26,0,0,1-.23-.17,25,25,0,0,0-47.33,0,.26.26,0,0,1-.24.17H56.53a.26.26,0,0,1-.2-.1.27.27,0,0,1,0-.21,36,36,0,0,1,35-27.75,35.59,35.59,0,0,1,25.3,10.46c.27.27.53.55.79.84l.78.82a13.82,13.82,0,0,0,4.09,3,7.19,7.19,0,0,0,.86.37,30.49,30.49,0,0,0,8,1.21,26,26,0,0,0,3.24-.08l.49,0a.77.77,0,0,0,.64-.39.74.74,0,0,0,.05-.72,44.72,44.72,0,0,0-7.06-11.19A48.78,48.78,0,0,0,42.5,90.85v.44h0A49.63,49.63,0,0,0,43,98.1a.78.78,0,0,0,.77.66H67.37a.26.26,0,0,1,.24.17,25,25,0,0,0,47.33,0,.25.25,0,0,1,.23-.17H126a.28.28,0,0,1,.2.1.26.26,0,0,1,0,.21,36,36,0,0,1-35,27.75A35.62,35.62,0,0,1,66,116.36c-.27-.27-.54-.55-.8-.84s-.51-.55-.78-.82a13.65,13.65,0,0,0-4.08-3,7.34,7.34,0,0,0-.87-.37,30.42,30.42,0,0,0-7.94-1.21,26.14,26.14,0,0,0-3.25.08l-.48,0a.81.81,0,0,0-.65.38.79.79,0,0,0,0,.73,48.71,48.71,0,0,0,93-20h0ZM78.24,94.81l.12-.1c-.08-.27-.14-.54-.21-.81l0-.15c-.07-.3-.12-.59-.17-.91v0c0-.25-.07-.51-.09-.79l0-.23c0-.26,0-.48,0-.69s0-.53,0-.85l0-.23c0-.28,0-.54.09-.8v-.08c0-.27.09-.56.16-.87l0-.15c.07-.32.14-.57.21-.81l-.14,0h0l.15,0c.09-.27.18-.54.28-.8l0-.11c.11-.29.23-.57.35-.84a13.46,13.46,0,0,1,23.53-1.66,13.89,13.89,0,0,1,.91,1.64c.14.29.25.57.36.86l0,.11c.1.27.2.54.28.83v0a7.73,7.73,0,0,1,.21.8l0,.16c.07.3.12.59.16.87v.09c0,.24.07.51.09.8l0,.22c0,.26,0,.48,0,.69s0,.54,0,.85V92q0,.44-.09.81v.07c0,.29-.1.58-.17.88l0,.15c-.07.29-.13.55-.21.81l0,.06c-.07.25-.16.51-.26.77l-.05.13c-.11.3-.23.58-.35.85A13.46,13.46,0,0,1,80,98.18a12.59,12.59,0,0,1-.91-1.64c-.14-.29-.25-.57-.37-.86l0-.12h0c-.1-.27-.19-.54-.27-.79l-.14,0Z"/></svg>