<?xml version="1.0" standalone="no"?>
<!DOCTYPE svg PUBLIC "-//W3C//DTD SVG 20010904//EN"
 "http://www.w3.org/TR/2001/REC-SVG-20010904/DTD/svg10.dtd">
<svg version="1.0" xmlns="http://www.w3.org/2000/svg"
 width="500.000000pt" height="500.000000pt" viewBox="0 0 500.000000 500.000000"
 preserveAspectRatio="xMidYMid meet">

<g transform="translate(0.000000,500.000000) scale(0.100000,-0.100000)"
fill="#000000" stroke="none">
<path d="M2365 3050 c-295 -32 -585 -182 -772 -399 -71 -82 -83 -106 -83 -154
0 -42 22 -76 108 -168 396 -423 1049 -501 1538 -184 96 62 296 253 314 300 13
35 13 91 -2 118 -22 43 -143 170 -221 232 -241 193 -571 288 -882 255z m284
-130 c236 -31 495 -171 658 -357 l55 -62 -87 -90 c-143 -148 -319 -253 -510
-303 -78 -20 -113 -23 -270 -23 -159 0 -190 3 -265 24 -202 57 -358 148 -502
293 -49 48 -88 93 -88 99 0 23 114 141 198 204 234 177 519 253 811 215z"/>
<path d="M2427 2880 c-71 -12 -146 -52 -200 -107 -188 -188 -131 -502 111
-616 59 -28 78 -32 152 -32 140 0 246 54 322 165 136 199 48 486 -174 568 -66
24 -148 33 -211 22z m154 -135 c102 -35 169 -130 169 -239 -1 -148 -109 -256
-255 -256 -184 1 -308 192 -231 355 59 125 191 183 317 140z"/>
<path d="M1090 1340 l0 -140 135 0 c113 0 135 2 135 15 0 13 -20 15 -120 15
l-120 0 0 50 0 50 115 0 c96 0 115 3 115 15 0 12 -19 15 -115 15 l-115 0 0 45
0 45 120 0 c100 0 120 3 120 15 0 13 -22 15 -135 15 l-135 0 0 -140z"/>
<path d="M2270 1341 c0 -119 2 -141 15 -141 11 0 15 13 15 54 l0 54 126 3
c145 5 154 10 154 90 0 69 -9 73 -172 77 l-138 4 0 -141z m261 99 c21 -12 25
-50 9 -81 -10 -17 -22 -19 -125 -19 l-115 0 0 48 c0 27 3 52 7 55 10 11 203 8
224 -3z"/>
<path d="M2630 1340 c0 -118 2 -140 15 -140 12 0 15 13 15 55 l0 55 109 0 c60
0 116 -3 125 -6 12 -4 16 -20 16 -55 0 -43 2 -49 21 -49 20 0 21 4 17 51 -3
28 -11 55 -19 59 -11 7 -10 12 4 28 13 15 17 33 15 68 -3 46 -5 50 -38 61 -19
7 -90 12 -157 12 l-123 1 0 -140z m271 100 c22 -12 27 -68 7 -88 -8 -8 -52
-12 -130 -12 l-118 0 0 48 c0 27 3 52 7 55 10 11 213 8 234 -3z"/>
<path d="M3025 1455 c-23 -22 -25 -32 -25 -115 0 -113 15 -134 105 -145 65 -9
188 0 216 15 27 15 42 84 35 160 -4 53 -10 69 -31 88 -24 20 -36 22 -151 22
-119 0 -126 -1 -149 -25z m283 -17 c7 -7 12 -45 12 -99 0 -68 -3 -89 -17 -100
-22 -19 -236 -20 -255 -1 -20 20 -18 190 2 202 23 14 243 13 258 -2z"/>
<path d="M3400 1472 c0 -6 32 -69 71 -141 59 -109 75 -131 94 -131 19 0 35 22
94 131 39 72 71 135 71 141 0 5 -7 8 -16 6 -10 -2 -44 -55 -80 -123 -35 -66
-66 -119 -70 -118 -4 1 -35 55 -69 120 -35 67 -69 119 -79 121 -9 2 -16 -1
-16 -6z"/>
<path d="M3843 1340 c-69 -118 -78 -140 -62 -140 12 0 27 13 37 30 l17 30 112
0 112 0 16 -30 c10 -18 23 -30 36 -30 11 0 18 3 16 8 -115 202 -161 272 -181
272 -17 0 -38 -29 -103 -140z m153 27 l42 -72 -85 -3 c-47 -2 -88 -1 -90 2 -3
3 14 39 38 80 23 42 45 73 48 70 3 -2 24 -37 47 -77z"/>
<path d="M1432 1394 c-12 -8 -22 -22 -22 -30 0 -19 27 -18 38 1 6 11 25 16 65
16 63 1 82 -9 89 -45 5 -24 4 -24 -71 -19 -93 5 -125 -8 -129 -54 -5 -45 26
-63 108 -63 39 0 71 5 79 13 11 10 14 10 18 0 3 -7 12 -13 20 -13 13 0 14 14
12 86 -4 76 -7 88 -28 105 -30 25 -145 27 -179 3z m152 -110 c25 -10 19 -43
-10 -54 -52 -20 -144 -6 -144 23 0 26 25 37 81 37 32 0 64 -3 73 -6z"/>
<path d="M1712 1394 c-24 -17 -30 -65 -9 -82 6 -5 51 -13 99 -17 88 -7 105
-16 92 -50 -12 -31 -159 -31 -171 1 -7 18 -33 18 -33 0 0 -30 42 -46 120 -46
88 0 120 16 120 59 0 46 -27 61 -106 61 -76 0 -112 15 -101 44 4 10 19 16 44
17 73 3 118 -3 126 -17 10 -18 37 -18 37 0 0 30 -42 46 -120 46 -52 0 -82 -5
-98 -16z"/>
<path d="M1970 1403 c0 -3 25 -54 56 -112 52 -98 54 -106 38 -118 -10 -7 -29
-13 -42 -13 -15 0 -22 -5 -19 -12 5 -16 63 -14 83 3 14 11 134 239 134 254 0
3 -8 5 -18 5 -14 0 -30 -25 -61 -92 l-43 -93 -46 93 c-32 64 -52 92 -64 92
-10 0 -18 -3 -18 -7z"/>
</g>
</svg>
