<svg width="167" height="38" viewBox="0 0 167 38" fill="none" xmlns="http://www.w3.org/2000/svg">
<path d="M113.795 19.1122V24.3782C113.795 24.3859 113.796 24.3935 113.799 24.4006C113.802 24.4077 113.806 24.4142 113.812 24.4196C113.817 24.425 113.824 24.4293 113.831 24.4323C113.838 24.4352 113.845 24.4367 113.853 24.4367C114.455 24.4367 115.033 24.198 115.46 23.7727C115.887 23.3475 116.127 22.7705 116.129 22.1681V19.1122C116.129 17.5765 117.638 16.3252 119.489 16.3252V13.9865C116.352 13.9982 113.795 16.2941 113.795 19.1122Z" fill="white"/>
<path d="M107.273 14.0251C106.626 13.9965 105.981 14.1231 105.392 14.3943C104.804 14.6656 104.289 15.0735 103.89 15.5843V14.0797C103.89 14.0722 103.888 14.0647 103.885 14.0579C103.882 14.051 103.878 14.0448 103.872 14.0396C103.867 14.0345 103.86 14.0306 103.853 14.0281C103.846 14.0256 103.839 14.0246 103.831 14.0251H101.711C101.696 14.0251 101.682 14.0307 101.671 14.0408C101.66 14.051 101.653 14.0649 101.652 14.0797V28.0613C101.653 28.0762 101.66 28.0901 101.671 28.1002C101.682 28.1103 101.696 28.1159 101.711 28.1159C101.997 28.1154 102.281 28.0584 102.546 27.9483C102.81 27.8381 103.051 27.6769 103.253 27.4738C103.455 27.2708 103.616 27.0299 103.725 26.7648C103.834 26.4998 103.89 26.2159 103.89 25.9292V22.9162C104.292 23.4214 104.809 23.824 105.397 24.091C105.985 24.3579 106.628 24.4816 107.273 24.4519C107.931 24.4614 108.584 24.3319 109.188 24.072C109.793 23.812 110.335 23.4275 110.781 22.9434C111.713 21.9352 112.23 20.613 112.23 19.2405C112.23 17.8679 111.713 16.5457 110.781 15.5375C110.336 15.0527 109.793 14.6674 109.189 14.4068C108.584 14.1462 107.931 14.0161 107.273 14.0251ZM110.002 19.2366C110.013 19.644 109.943 20.0496 109.793 20.4288C109.644 20.808 109.419 21.1529 109.132 21.4428C108.545 22.0027 107.765 22.3151 106.953 22.3151C106.142 22.3151 105.362 22.0027 104.775 21.4428C104.216 20.8445 103.906 20.0567 103.906 19.2385C103.906 18.4203 104.216 17.6325 104.775 17.0343C105.36 16.4716 106.141 16.1574 106.953 16.1574C107.766 16.1574 108.547 16.4716 109.132 17.0343C109.416 17.3248 109.638 17.6697 109.784 18.0482C109.931 18.4266 110 18.8309 109.986 19.2366H110.002Z" fill="white"/>
<path d="M55.3183 18.7185L53.7826 18.2391C53.3431 18.1077 52.9165 17.9368 52.508 17.7285C52.3644 17.6801 52.238 17.5908 52.1444 17.4717C52.0507 17.3526 51.9938 17.2088 51.9805 17.0579C51.9673 16.907 51.9984 16.7554 52.0699 16.6219C52.1414 16.4883 52.2503 16.3784 52.3832 16.3058C52.6768 16.1291 53.0152 16.0412 53.3577 16.0524C53.7277 16.0233 54.0975 16.1121 54.414 16.3061C54.7305 16.5 54.9775 16.7892 55.1195 17.1321C55.1227 17.1396 55.1275 17.1463 55.1335 17.1517C55.1396 17.1571 55.1468 17.161 55.1546 17.1633C55.1697 17.169 55.1863 17.169 55.2014 17.1633L56.9593 16.1654C56.9658 16.1621 56.9715 16.1576 56.9761 16.1521C56.9808 16.1466 56.9843 16.1402 56.9865 16.1333C56.9887 16.1264 56.9895 16.1192 56.9888 16.112C56.9882 16.1048 56.9861 16.0978 56.9827 16.0914C56.6528 15.454 56.145 14.9259 55.521 14.5712C54.8596 14.2047 54.1138 14.0179 53.3577 14.0294C52.4336 14.0006 51.5282 14.2941 50.7968 14.8596C50.4644 15.123 50.198 15.4603 50.0187 15.8446C49.8394 16.2289 49.7521 16.6497 49.7639 17.0736C49.7416 17.6703 49.9338 18.2552 50.3057 18.7224C50.6583 19.1463 51.127 19.4579 51.6543 19.619L53.2057 20.0945C53.6449 20.2277 54.0704 20.4026 54.4764 20.6168C54.6175 20.6786 54.7381 20.7792 54.8244 20.9068C54.9106 21.0345 54.9589 21.1839 54.9636 21.3379C54.9636 22.0356 54.4413 22.3748 53.3772 22.3748C52.3131 22.3748 51.6114 21.9265 51.284 21.0066C51.2863 20.9952 51.2849 20.9834 51.2799 20.9729C51.275 20.9624 51.2669 20.9537 51.2567 20.9481C51.2417 20.9424 51.225 20.9424 51.21 20.9481L49.413 22.0045C49.4067 22.0073 49.4011 22.0115 49.3965 22.0167C49.3919 22.0218 49.3883 22.0279 49.3861 22.0345C49.384 22.041 49.3831 22.048 49.3837 22.0549C49.3843 22.0618 49.3864 22.0685 49.3897 22.0746C49.6938 22.7924 50.2233 23.3917 50.8981 23.7819C51.6573 24.205 52.5162 24.4164 53.385 24.3938C54.3586 24.4289 55.317 24.1442 56.1135 23.5831C56.6953 23.1196 57.0774 22.4507 57.1811 21.714C57.2848 20.9774 57.1022 20.229 56.6709 19.6228C56.3225 19.1909 55.8507 18.8754 55.3183 18.7185Z" fill="white"/>
<path d="M68.2594 14.0215H66.0103C66.0032 14.0215 65.9961 14.0229 65.9895 14.0257C65.9828 14.0284 65.9768 14.0324 65.9718 14.0375C65.9667 14.0426 65.9627 14.0486 65.9599 14.0552C65.9572 14.0618 65.9558 14.0689 65.9558 14.0761V19.307C65.9558 20.2971 65.7141 21.0416 65.2425 21.521C64.9952 21.7618 64.7013 21.9496 64.379 22.0729C64.0566 22.1962 63.7124 22.2525 63.3676 22.2382C63.0638 22.2543 62.7599 22.209 62.474 22.1052C62.1881 22.0014 61.9259 21.8412 61.7032 21.6341C61.4904 21.3983 61.3269 21.1224 61.2225 20.8225C61.118 20.5225 61.0747 20.2047 61.0951 19.8878V14.0761C61.0951 14.0616 61.0894 14.0477 61.0791 14.0375C61.0689 14.0273 61.055 14.0215 61.0406 14.0215H58.7915C58.7843 14.0215 58.7772 14.0229 58.7706 14.0257C58.764 14.0284 58.758 14.0324 58.7529 14.0375C58.7478 14.0426 58.7438 14.0486 58.7411 14.0552C58.7383 14.0618 58.7369 14.0689 58.7369 14.0761V20.1178C58.7053 20.6943 58.7879 21.2713 58.9799 21.8158C59.1718 22.3603 59.4694 22.8615 59.8556 23.2907C60.2357 23.6791 60.6928 23.9839 61.1976 24.1852C61.7024 24.3866 62.2437 24.4802 62.7868 24.46C64.1978 24.46 65.262 23.965 65.9558 22.9905V24.4015C65.9557 24.4164 65.9614 24.4307 65.9715 24.4416C65.9816 24.4524 65.9955 24.459 66.0103 24.46H68.2594C68.2742 24.459 68.2881 24.4524 68.2983 24.4416C68.3084 24.4307 68.314 24.4164 68.314 24.4015V14.0761C68.314 14.0689 68.3126 14.0618 68.3098 14.0552C68.3071 14.0486 68.3031 14.0426 68.298 14.0375C68.2929 14.0324 68.2869 14.0284 68.2803 14.0257C68.2737 14.0229 68.2666 14.0215 68.2594 14.0215Z" fill="white"/>
<path d="M87.4568 14.0254C86.4236 14.0303 85.4147 14.339 84.5556 14.9131C83.6966 15.4872 83.0255 16.3014 82.6257 17.2541C82.226 18.2069 82.1154 19.2561 82.3077 20.2713C82.4999 21.2865 82.9866 22.2226 83.707 22.9632C84.2245 23.4579 84.8364 23.8433 85.5061 24.0964C86.1757 24.3496 86.8895 24.4653 87.6049 24.4366C89.5148 24.4366 90.9765 23.7116 91.9549 22.2772C91.9578 22.2704 91.9593 22.2631 91.9593 22.2558C91.9593 22.2484 91.9578 22.2411 91.9549 22.2343C91.9504 22.2197 91.9407 22.2072 91.9276 22.1992L90.1814 21.178C90.1703 21.1691 90.1566 21.1643 90.1424 21.1643C90.1282 21.1643 90.1145 21.1691 90.1034 21.178C89.8222 21.567 89.447 21.8783 89.0127 22.0828C88.5785 22.2873 88.0995 22.3784 87.6205 22.3474C86.8985 22.3696 86.1879 22.1637 85.5897 21.7588C85.0515 21.3732 84.6796 20.7979 84.5489 20.149H92.2901C92.3038 20.1492 92.3171 20.1447 92.3278 20.1362C92.3385 20.1276 92.3459 20.1156 92.3486 20.1022C92.3937 19.8079 92.4198 19.5111 92.4265 19.2135C92.4549 17.8449 91.9536 16.5183 91.0272 15.5105C90.5724 15.0227 90.0184 14.6378 89.4026 14.3817C88.7868 14.1256 88.1234 14.0041 87.4568 14.0254ZM90.1853 18.352H84.545C84.6625 17.7023 85.0047 17.1145 85.5117 16.6915C86.0579 16.258 86.7404 16.0329 87.4373 16.0562C88.0827 16.0479 88.7114 16.2612 89.2186 16.6604C89.7329 17.0892 90.0737 17.6905 90.1775 18.352H90.1853Z" fill="white"/>
<path d="M139.018 13.9942H136.512V11.1643C136.511 11.1553 136.509 11.1465 136.505 11.1384C136.501 11.1303 136.495 11.1232 136.488 11.1176C136.472 11.1116 136.454 11.1116 136.437 11.1176L134.204 11.7802C134.192 11.783 134.181 11.7901 134.174 11.8001C134.167 11.8102 134.164 11.8225 134.165 11.8348V14.002H132.996C132.986 14.0024 132.977 14.0051 132.969 14.0099C132.961 14.0146 132.954 14.0213 132.949 14.0293L131.514 16.1731C131.51 16.1821 131.507 16.1921 131.507 16.2023C131.507 16.2125 131.51 16.2226 131.514 16.2316C131.52 16.2406 131.527 16.2482 131.536 16.2536C131.545 16.259 131.555 16.2622 131.565 16.2628H134.153V21.0844C134.153 22.4448 134.543 23.3959 135.295 23.9065C136.006 24.309 136.819 24.4972 137.634 24.4483C138.092 24.4451 138.548 24.4151 139.002 24.3586C139.016 24.3569 139.028 24.3504 139.037 24.3405C139.047 24.3305 139.052 24.3176 139.053 24.3041V22.3006C139.053 22.293 139.051 22.2855 139.048 22.2787C139.045 22.2719 139.04 22.266 139.033 22.2616C139.027 22.2587 139.019 22.2572 139.012 22.2572C139.005 22.2572 138.997 22.2587 138.991 22.2616C138.433 22.2889 137.958 22.2889 137.58 22.2616C137.28 22.2665 136.989 22.1626 136.761 21.9692C136.659 21.849 136.582 21.7094 136.535 21.5586C136.488 21.4079 136.472 21.2493 136.488 21.0922V16.2706H138.994C139.01 16.2706 139.025 16.2644 139.036 16.2534C139.047 16.2425 139.053 16.2276 139.053 16.2121V14.0683C139.058 14.0538 139.057 14.0379 139.051 14.0241C139.044 14.0102 139.032 13.9995 139.018 13.9942V13.9942Z" fill="white"/>
<path d="M152.874 20.7569C152.867 20.754 152.86 20.7525 152.853 20.7525C152.845 20.7525 152.838 20.754 152.831 20.7569C152.817 20.7614 152.804 20.7711 152.796 20.7842C152.563 21.236 152.204 21.6109 151.763 21.8639C151.296 22.1309 150.765 22.2656 150.228 22.2537C149.831 22.2626 149.437 22.1901 149.069 22.0405C148.702 21.891 148.369 21.6677 148.092 21.3845C147.541 20.7995 147.234 20.0265 147.234 19.2231C147.234 18.4198 147.541 17.6467 148.092 17.0617C148.37 16.7797 148.703 16.5575 149.07 16.4087C149.438 16.2599 149.831 16.1877 150.228 16.1964C150.765 16.1849 151.296 16.3196 151.763 16.5862C152.197 16.8398 152.544 17.219 152.757 17.6737C152.765 17.6868 152.778 17.6965 152.792 17.701C152.799 17.7048 152.806 17.7067 152.814 17.7067C152.821 17.7067 152.829 17.7048 152.835 17.701L154.667 16.6603C154.674 16.657 154.679 16.6524 154.684 16.6469C154.689 16.6414 154.692 16.635 154.694 16.6281C154.697 16.6212 154.697 16.614 154.697 16.6068C154.696 16.5996 154.694 16.5926 154.691 16.5862C154.288 15.801 153.665 15.1506 152.898 14.7152C152.092 14.2519 151.177 14.0123 150.247 14.0214C149.561 14.0214 148.882 14.1565 148.248 14.419C147.615 14.6815 147.039 15.0662 146.554 15.5512C146.069 16.0362 145.684 16.612 145.422 17.2457C145.159 17.8794 145.024 18.5586 145.024 19.2445C145.024 19.9305 145.159 20.6097 145.422 21.2434C145.684 21.8771 146.069 22.4529 146.554 22.9379C147.039 23.4229 147.615 23.8076 148.248 24.0701C148.882 24.3326 149.561 24.4677 150.247 24.4677C151.177 24.4764 152.092 24.2369 152.898 23.7739C153.673 23.3268 154.307 22.672 154.73 21.8834C154.733 21.877 154.735 21.87 154.736 21.8628C154.736 21.8556 154.736 21.8484 154.733 21.8415C154.731 21.8346 154.728 21.8282 154.723 21.8227C154.718 21.8172 154.713 21.8126 154.706 21.8093L152.874 20.7569Z" fill="white"/>
<path d="M164.708 15.4912C163.713 14.5337 162.386 13.9988 161.005 13.9988C159.624 13.9988 158.297 14.5337 157.302 15.4912C156.321 16.4741 155.771 17.8058 155.771 19.1942C155.771 20.5826 156.321 21.9143 157.302 22.8972C158.297 23.8547 159.624 24.3896 161.005 24.3896C162.386 24.3896 163.713 23.8547 164.708 22.8972C165.682 21.9108 166.228 20.5804 166.228 19.1942C166.228 17.808 165.682 16.4775 164.708 15.4912V15.4912ZM157.988 19.1903C157.977 18.7886 158.049 18.389 158.197 18.0158C158.346 17.6425 158.569 17.3035 158.853 17.0192C159.28 16.6027 159.821 16.3214 160.407 16.2106C160.993 16.0997 161.599 16.1642 162.149 16.3959C162.698 16.6277 163.167 17.0164 163.497 17.5134C163.827 18.0105 164.003 18.5938 164.003 19.1903C164.003 19.7868 163.827 20.3701 163.497 20.8672C163.167 21.3642 162.698 21.7529 162.149 21.9846C161.599 22.2164 160.993 22.2809 160.407 22.17C159.821 22.0592 159.28 21.7779 158.853 21.3614V21.3614C158.569 21.0787 158.346 20.741 158.197 20.369C158.049 19.997 157.977 19.5986 157.988 19.1981V19.1903Z" fill="white"/>
<path d="M143.293 14.0252H141.041C141.008 14.0252 140.982 14.0514 140.982 14.0837V24.3897C140.982 24.422 141.008 24.4482 141.041 24.4482H143.293C143.326 24.4482 143.352 24.422 143.352 24.3897V14.0837C143.352 14.0514 143.326 14.0252 143.293 14.0252Z" fill="white"/>
<path d="M143.293 9.87805H141.041C141.008 9.87805 140.982 9.90423 140.982 9.93652V12.1427C140.982 12.175 141.008 12.2012 141.041 12.2012H143.293C143.326 12.2012 143.352 12.175 143.352 12.1427V9.93652C143.352 9.90423 143.326 9.87805 143.293 9.87805Z" fill="white"/>
<path d="M75.8446 14.0487C75.1978 14.0201 74.5535 14.1467 73.9656 14.418C73.3777 14.6892 72.8632 15.0972 72.4652 15.6078V14.1072C72.4652 14.0923 72.4596 14.078 72.4494 14.0671C72.4393 14.0563 72.4254 14.0497 72.4106 14.0487H70.2902C70.2747 14.0487 70.2598 14.0549 70.2488 14.0658C70.2379 14.0768 70.2317 14.0917 70.2317 14.1072V28.0615C70.2317 28.0771 70.2379 28.0919 70.2488 28.1029C70.2598 28.1139 70.2747 28.12 70.2902 28.12C70.5763 28.1195 70.8595 28.0626 71.1237 27.9527C71.3879 27.8427 71.6278 27.6818 71.8297 27.4791C72.0317 27.2764 72.1918 27.0359 72.3008 26.7713C72.4098 26.5068 72.4657 26.2233 72.4652 25.9372V22.9281C72.8669 23.4327 73.3828 23.8348 73.9703 24.1011C74.5579 24.3674 75.2003 24.4904 75.8446 24.4599C76.5023 24.4699 77.1547 24.341 77.7591 24.0818C78.3636 23.8225 78.9066 23.4387 79.3527 22.9553C80.2892 21.9497 80.8099 20.6265 80.8099 19.2524C80.8099 17.8782 80.2892 16.555 79.3527 15.5494C78.9063 15.0667 78.3631 14.6836 77.7586 14.4251C77.1542 14.1665 76.502 14.0382 75.8446 14.0487V14.0487ZM78.542 19.2563C78.5537 19.6621 78.4831 20.0662 78.3344 20.4441C78.1857 20.8219 77.9619 21.1657 77.6766 21.4547C77.0905 22.0153 76.3107 22.3282 75.4997 22.3282C74.6886 22.3282 73.9088 22.0153 73.3227 21.4547C72.7642 20.8581 72.4535 20.0715 72.4535 19.2543C72.4535 18.4371 72.7642 17.6505 73.3227 17.054C73.9088 16.4933 74.6886 16.1804 75.4997 16.1804C76.3107 16.1804 77.0905 16.4933 77.6766 17.054C77.9617 17.3439 78.1852 17.6884 78.3339 18.0669C78.4826 18.4453 78.5534 18.8498 78.542 19.2563V19.2563Z" fill="white"/>
<path d="M130.384 14.0254H128.256C128.241 14.0254 128.226 14.031 128.215 14.0411C128.205 14.0513 128.198 14.0652 128.197 14.08V15.5573C127.793 15.0521 127.275 14.65 126.686 14.3837C126.096 14.1174 125.452 13.9946 124.806 14.0254C124.149 14.0189 123.497 14.1493 122.893 14.4083C122.289 14.6673 121.746 15.0494 121.298 15.53C120.36 16.5348 119.838 17.8583 119.838 19.233C119.838 20.6077 120.36 21.9312 121.298 22.936C121.745 23.419 122.288 23.8031 122.892 24.0636C123.496 24.324 124.148 24.4551 124.806 24.4483C125.455 24.4782 126.101 24.3522 126.691 24.0809C127.281 23.8097 127.797 23.401 128.197 22.8892V24.386C128.198 24.4008 128.205 24.4147 128.215 24.4248C128.226 24.435 128.241 24.4406 128.256 24.4405H130.384C130.398 24.4405 130.412 24.4348 130.422 24.4246C130.433 24.4143 130.438 24.4004 130.438 24.386V14.08C130.438 14.0655 130.433 14.0516 130.422 14.0414C130.412 14.0312 130.398 14.0254 130.384 14.0254ZM125.157 22.3084C124.653 22.3027 124.159 22.1737 123.717 21.9327C123.275 21.6917 122.899 21.3459 122.622 20.9258C122.344 20.5057 122.174 20.024 122.126 19.5229C122.078 19.0217 122.154 18.5165 122.346 18.0513C122.539 17.5862 122.843 17.1754 123.231 16.8548C123.619 16.5343 124.08 16.3138 124.573 16.2127C125.066 16.1116 125.576 16.1329 126.059 16.2749C126.542 16.4168 126.983 16.675 127.343 17.0268C127.783 17.4566 128.084 18.0083 128.208 18.6108C128.331 19.2133 128.272 19.839 128.036 20.4072C127.801 20.9755 127.401 21.4602 126.888 21.7991C126.375 22.1379 125.772 22.3153 125.157 22.3084V22.3084Z" fill="white"/>
<path d="M123.115 12.6067H127.5C127.515 12.6067 127.53 12.6006 127.541 12.5896C127.552 12.5786 127.558 12.5638 127.558 12.5482V9.93278C127.558 9.9243 127.556 9.91602 127.551 9.90857C127.547 9.90113 127.542 9.89474 127.535 9.8899C127.527 9.88635 127.518 9.88452 127.509 9.88452C127.501 9.88452 127.492 9.88635 127.484 9.8899L124.366 10.8137C123.99 10.9264 123.66 11.157 123.425 11.4714C123.19 11.7858 123.062 12.1674 123.06 12.5599C123.063 12.5727 123.069 12.5842 123.079 12.5927C123.089 12.6012 123.102 12.6061 123.115 12.6067V12.6067Z" fill="white"/>
<path d="M94.1923 19.2369V24.3782C94.1923 24.3859 94.1938 24.3935 94.1967 24.4006C94.1996 24.4077 94.204 24.4142 94.2094 24.4196C94.2148 24.425 94.2213 24.4293 94.2284 24.4323C94.2354 24.4352 94.243 24.4367 94.2507 24.4367C94.8386 24.4367 95.4026 24.2037 95.819 23.7887C96.2355 23.3737 96.4705 22.8106 96.4725 22.2227V19.2369C96.4725 17.7402 97.9459 16.5084 99.7545 16.5084V14.2438C96.6869 14.2438 94.1923 16.4851 94.1923 19.2369Z" fill="white"/>
<path d="M38.0238 18.9717H37.9653H38.0238V18.8937C38.0162 18.0052 37.9472 17.1183 37.8172 16.2393C37.806 16.1677 37.7697 16.1024 37.7146 16.0552C37.6596 16.0081 37.5895 15.9821 37.517 15.982H28.3259C28.3061 15.981 28.287 15.9741 28.2711 15.9623C28.2552 15.9506 28.243 15.9344 28.2362 15.9158C27.5803 13.99 26.3381 12.3178 24.6839 11.1337C23.0296 9.94958 21.0463 9.31288 19.0119 9.31288C16.9775 9.31288 14.9941 9.94958 13.3399 11.1337C11.6856 12.3178 10.4435 13.99 9.78756 15.9158C9.78048 15.935 9.76776 15.9516 9.75106 15.9634C9.73436 15.9752 9.71447 15.9817 9.69401 15.982H5.46872C5.45364 15.9817 5.43882 15.9781 5.42533 15.9714C5.41185 15.9646 5.40004 15.9549 5.39076 15.9431C5.38529 15.9301 5.38248 15.9162 5.38248 15.9021C5.38248 15.8881 5.38529 15.8742 5.39076 15.8612C6.11486 12.7856 7.85579 10.0444 10.3317 8.08131C12.8076 6.11826 15.8736 5.04829 19.0333 5.0446C20.8649 5.03956 22.6793 5.39724 24.3718 6.09703C26.0644 6.79681 27.6017 7.82483 28.8949 9.12178C29.0002 9.22702 29.1015 9.33616 29.2029 9.4492L29.5069 9.76883C29.9616 10.2536 30.5021 10.6501 31.1011 10.9382C31.2096 10.9935 31.3216 11.0417 31.4364 11.0824C32.4502 11.3775 33.4989 11.5361 34.5547 11.5541C34.9759 11.5699 35.3977 11.5595 35.8176 11.5229H36.0086C36.0596 11.5209 36.1094 11.5059 36.153 11.4793C36.1967 11.4527 36.2328 11.4153 36.258 11.3709C36.285 11.3296 36.3009 11.2822 36.3043 11.2331C36.3077 11.1839 36.2985 11.1348 36.2775 11.0902C35.5816 9.50789 34.6541 8.0379 33.5256 6.72849C31.013 3.76053 27.6509 1.63434 23.8924 0.636557C20.1339 -0.361221 16.1598 -0.182599 12.506 1.14834C8.85219 2.47928 5.69431 4.89854 3.45812 8.07993C1.22194 11.2613 0.0149924 15.0519 0 18.9405V19.112C0.00394665 20.0003 0.0690653 20.8872 0.194894 21.7665C0.206045 21.8381 0.242414 21.9034 0.297445 21.9505C0.352477 21.9977 0.42255 22.0237 0.49503 22.0237H9.69401C9.71447 22.0241 9.73436 22.0305 9.75106 22.0424C9.76776 22.0542 9.78048 22.0708 9.78756 22.09C10.4435 24.0157 11.6856 25.6879 13.3399 26.8721C14.9941 28.0562 16.9775 28.6929 19.0119 28.6929C21.0463 28.6929 23.0296 28.0562 24.6839 26.8721C26.3381 25.6879 27.5803 24.0157 28.2362 22.09C28.2426 22.0711 28.2546 22.0546 28.2706 22.0428C28.2866 22.0309 28.3059 22.0243 28.3259 22.0237H32.5472C32.5622 22.0245 32.5769 22.0284 32.5903 22.0351C32.6037 22.0418 32.6156 22.0512 32.6252 22.0627C32.6309 22.0756 32.6338 22.0895 32.6338 22.1036C32.6338 22.1177 32.6309 22.1317 32.6252 22.1446C31.9011 25.2202 30.1602 27.9614 27.6843 29.9245C25.2083 31.8875 22.1424 32.9575 18.9826 32.9612C17.1578 32.9604 15.3509 32.6 13.6655 31.9004C11.98 31.2008 10.449 30.1758 9.16 28.884C9.05476 28.7788 8.94952 28.6696 8.84817 28.5566C8.74683 28.4435 8.64938 28.3422 8.54414 28.2369C8.09161 27.7514 7.55222 27.3548 6.95381 27.0676C6.84399 27.0123 6.73071 26.9641 6.61469 26.9234C5.60844 26.6301 4.56773 26.4715 3.51978 26.4517C3.09727 26.4358 2.67418 26.4462 2.25297 26.4829H2.06587C2.01481 26.4852 1.96507 26.4999 1.92094 26.5257C1.8768 26.5515 1.8396 26.5877 1.81251 26.631C1.78963 26.675 1.77767 26.7238 1.77767 26.7733C1.77767 26.8228 1.78963 26.8716 1.81251 26.9156C3.61213 30.8472 6.69983 34.0468 10.565 35.9852C14.4301 37.9236 18.8411 38.4847 23.0684 37.5756C27.2957 36.6665 31.086 34.3417 33.8126 30.9858C36.5391 27.6298 38.0385 23.4437 38.0627 19.1198L38.0238 18.9717ZM13.931 20.4841L13.9778 20.4451C13.9466 20.3399 13.9232 20.2346 13.8959 20.1294V20.0709C13.8686 19.954 13.8491 19.8409 13.8297 19.7162C13.8297 19.6188 13.8024 19.5174 13.7946 19.4083V19.3186C13.7946 19.2173 13.7946 19.1315 13.7946 19.0497C13.7946 18.9678 13.7946 18.8431 13.7946 18.7183V18.6287C13.7946 18.5196 13.7946 18.4182 13.8297 18.3169V18.2857C13.8297 18.1804 13.8647 18.0674 13.892 17.9466V17.8881C13.9193 17.7634 13.9466 17.6659 13.9739 17.5724H13.9193H13.9778C14.0129 17.4671 14.0479 17.3619 14.0869 17.2605V17.2177C14.1298 17.1046 14.1766 16.9955 14.2233 16.8902C14.617 16.0372 15.2325 15.3055 16.0055 14.7716C16.7785 14.2377 17.6807 13.9212 18.6179 13.8551C19.555 13.7889 20.4928 13.9757 21.3331 14.3958C22.1734 14.8159 22.8855 15.4539 23.395 16.2432C23.5275 16.448 23.646 16.6616 23.7497 16.8824C23.8043 16.9955 23.8472 17.1046 23.8901 17.2177V17.2605C23.929 17.3658 23.968 17.471 23.9992 17.5841C24.032 17.6865 24.0594 17.7906 24.0811 17.8959V17.9583C24.1084 18.0752 24.1278 18.1882 24.1434 18.2974V18.3325C24.1434 18.426 24.1707 18.5312 24.1785 18.6443V18.73C24.1785 18.8314 24.1785 18.9171 24.1785 18.999C24.1785 19.0808 24.1785 19.2095 24.1785 19.3303V19.3888C24.1785 19.5031 24.1668 19.6084 24.1434 19.7045V19.7318C24.1434 19.8448 24.1045 19.9579 24.0772 20.0748V20.1333C24.0499 20.2463 24.0265 20.3477 23.9953 20.449V20.4724C23.968 20.5698 23.9329 20.6712 23.894 20.7725L23.8745 20.8232C23.8316 20.9401 23.7848 21.0493 23.7381 21.1545C23.3397 21.9956 22.7248 22.7155 21.9564 23.2405C21.188 23.7655 20.2938 24.0767 19.3655 24.1422C18.4372 24.2077 17.5082 24.025 16.6738 23.613C15.8393 23.201 15.1295 22.5745 14.617 21.7977C14.4831 21.5937 14.3645 21.38 14.2623 21.1584C14.2077 21.0454 14.1649 20.9362 14.1181 20.8232V20.7764C14.0791 20.6712 14.044 20.5659 14.0129 20.4685H13.9583L13.931 20.4841Z" fill="white"/>
</svg>
