<svg width="40" height="40" viewBox="0 0 40 40" fill="none" xmlns="http://www.w3.org/2000/svg">
<rect width="40" height="40" rx="10" fill="#04986D"/>
<path d="M19.9219 10.2459C25.3089 10.2459 29.6759 14.613 29.6759 20C29.6759 25.387 25.3089 29.7541 19.9219 29.7541" stroke="white" stroke-width="1.5" stroke-linecap="round" stroke-linejoin="round"/>
<path d="M16.5897 29.1569C15.5205 28.7698 14.5272 28.1987 13.6548 27.4694" stroke="white" stroke-width="1.5" stroke-linecap="round" stroke-linejoin="round"/>
<path d="M13.6548 12.5306C14.5267 11.8005 15.5201 11.2294 16.5897 10.8431" stroke="white" stroke-width="1.5" stroke-linecap="round" stroke-linejoin="round"/>
<path d="M10.3242 18.3071C10.5201 17.1862 10.9115 16.1084 11.4806 15.123" stroke="white" stroke-width="1.5" stroke-linecap="round" stroke-linejoin="round"/>
<path d="M10.3242 21.6918C10.5199 22.8131 10.9114 23.8913 11.4806 24.877" stroke="white" stroke-width="1.5" stroke-linecap="round" stroke-linejoin="round"/>
<path d="M24.3353 24.3351C24.2093 24.018 24.0138 23.7332 23.7631 23.5017V23.5017C23.3407 23.1091 22.7856 22.8908 22.2089 22.8905H17.7925C17.2156 22.8908 16.6601 23.1092 16.2373 23.5017V23.5017C15.9872 23.7337 15.7917 24.0184 15.665 24.3351" stroke="white" stroke-width="1.5" stroke-linecap="round" stroke-linejoin="round"/>
<circle cx="20" cy="18.1034" r="2.43852" stroke="white" stroke-width="1.5" stroke-linecap="round" stroke-linejoin="round"/>
</svg>
