<svg width="1440" height="987" viewBox="0 0 1440 987" fill="none" xmlns="http://www.w3.org/2000/svg">
<mask id="mask0" mask-type="alpha" maskUnits="userSpaceOnUse" x="0" y="0" width="1440" height="987">
<path d="M0 0H1440V986.5H0V0Z" fill="url(#paint0_linear)"/>
</mask>
<g mask="url(#mask0)">
<path d="M0 0H1440V986.5H0V0Z" fill="url(#paint1_linear)"/>
<path d="M1441.09 807L1444.26 807C1482.34 807 1520.43 803.823 1558.51 797.469C1564.86 797.469 1568.03 791.114 1568.03 784.76L1568.03 393.969C1568.03 390.791 1568.03 390.791 1571.2 390.791C1739.4 333.602 1850.48 174.744 1850.48 -0.000174349C1850.48 -174.744 1739.4 -333.602 1571.2 -390.791C1568.03 -390.791 1568.03 -393.968 1568.03 -393.968L1568.03 -575.067C1568.03 -575.067 1568.03 -578.244 1571.2 -578.244L1574.38 -578.244C1701.32 -549.65 1815.57 -476.575 1898.08 -374.906C1983.77 -270.059 2034.54 -133.441 2034.54 3.17718C2034.54 162.035 1974.25 311.362 1860 422.563C1856.82 425.74 1850.48 432.094 1847.3 435.271C1844.13 438.449 1837.78 444.803 1834.61 447.98C1812.39 470.221 1799.7 486.106 1783.83 514.701C1780.66 517.878 1780.66 524.232 1777.48 530.586C1764.79 571.89 1758.44 616.37 1758.44 660.85C1758.44 679.913 1758.44 692.622 1758.44 714.862L1758.44 724.394C1758.44 727.571 1761.62 733.925 1764.79 733.925C1767.96 737.102 1774.31 737.102 1777.48 733.925C1799.7 724.394 1834.61 708.508 1872.69 683.09C1904.43 664.027 1936.16 641.788 1961.55 616.37C2142.45 463.866 2244 238.287 2244 -0.000179041C2244 -193.807 2174.18 -381.26 2047.24 -527.41C1923.47 -673.559 1748.92 -768.874 1561.68 -797.469C1523.6 -803.823 1482.34 -807 1441.09 -807L1437.91 -807L1434.74 -807C1396.66 -807 1358.57 -803.823 1320.49 -797.469C1314.14 -797.469 1310.97 -791.114 1310.97 -784.76L1310.97 -393.968C1310.97 -390.791 1310.97 -390.791 1307.8 -390.791C1139.6 -333.602 1028.52 -174.744 1028.52 -0.000164547C1028.52 177.921 1139.6 333.602 1307.8 390.791C1310.97 390.791 1310.97 393.969 1310.97 393.969L1310.97 575.067C1310.97 575.067 1310.97 578.244 1307.8 578.244L1304.62 578.244C1177.68 549.649 1063.43 476.575 980.919 374.905C895.233 270.059 844.456 133.441 844.456 -3.17728C844.456 -162.036 904.754 -311.362 1019 -422.563C1022.18 -425.74 1028.52 -432.095 1031.7 -435.272C1034.87 -438.449 1041.22 -444.803 1044.39 -447.98C1066.61 -470.221 1079.3 -486.106 1095.17 -514.701C1098.34 -517.878 1098.34 -524.232 1101.52 -530.587C1114.21 -571.89 1120.56 -616.37 1120.56 -660.85C1120.56 -679.913 1120.56 -692.622 1120.56 -714.862L1120.56 -724.394C1120.56 -727.571 1117.38 -733.925 1114.21 -733.925C1111.04 -737.102 1104.69 -737.102 1101.52 -733.925C1079.3 -724.394 1044.39 -708.508 1006.31 -683.091C974.572 -664.028 942.836 -641.787 917.448 -616.37C736.554 -463.866 635 -238.288 635 -0.000159854C635 193.807 704.819 381.26 831.762 527.409C955.531 673.559 1130.08 768.874 1317.32 797.469C1355.4 803.823 1396.66 807 1434.74 807L1441.09 807ZM1374.44 -216.047C1380.79 -216.047 1383.96 -216.047 1390.31 -216.047L1393.48 -216.047C1399.83 -216.047 1403 -219.224 1409.35 -219.224C1412.52 -219.224 1418.87 -219.224 1422.04 -219.224L1425.22 -219.224C1428.39 -219.224 1434.74 -219.224 1437.91 -219.224C1441.09 -219.224 1447.43 -219.224 1450.61 -219.224L1453.78 -219.224C1456.95 -219.224 1463.3 -219.224 1466.48 -219.224C1469.65 -219.224 1476 -219.224 1482.34 -216.047L1485.52 -216.047C1491.86 -216.047 1495.04 -212.87 1498.21 -212.87L1498.21 -216.047L1498.21 -212.87C1501.38 -212.87 1507.73 -209.693 1510.91 -209.693L1514.08 -209.693C1520.43 -206.516 1523.6 -206.516 1526.77 -203.339C1536.29 -200.161 1545.81 -193.807 1555.34 -187.453C1618.81 -146.15 1656.89 -76.2521 1656.89 -0.00017204C1656.89 76.2518 1618.81 146.15 1555.34 187.453C1545.81 193.807 1536.29 196.984 1526.77 203.339C1523.6 206.516 1517.25 206.516 1514.08 209.693L1510.91 209.693C1507.73 212.87 1501.38 212.87 1498.21 212.87C1495.04 212.87 1488.69 216.047 1485.52 216.047L1482.34 216.047C1476 216.047 1472.82 219.225 1466.48 219.225C1463.3 219.225 1456.95 219.225 1453.78 219.225L1450.61 219.225C1447.43 219.225 1441.09 219.225 1437.91 219.225C1434.74 219.225 1428.39 219.225 1425.22 219.225L1422.04 219.225C1415.7 219.225 1412.52 219.225 1409.35 219.225C1403 219.225 1399.83 216.047 1393.48 216.047L1390.31 216.047C1387.14 216.047 1380.79 212.87 1377.62 212.87C1374.44 212.87 1368.09 209.693 1364.92 209.693L1361.75 209.693C1355.4 206.516 1352.23 206.516 1349.05 203.339C1339.53 200.162 1330.01 193.807 1320.49 187.453C1257.02 146.15 1218.94 76.2518 1218.94 -0.000166818C1218.94 -76.2521 1257.02 -146.15 1320.49 -187.453C1330.01 -193.807 1339.53 -196.984 1349.05 -203.339C1352.23 -206.516 1358.57 -206.516 1361.75 -209.693L1364.92 -209.693C1368.09 -212.87 1371.27 -212.87 1374.44 -216.047Z" fill="url(#paint2_linear)"/>
<path d="M2388 2730.42V2722.27C2388 2624.4 2379.83 2526.53 2363.5 2428.66C2363.5 2412.35 2347.17 2404.19 2330.84 2404.19H1326.5C1318.34 2404.19 1318.34 2404.19 1318.34 2396.03C1171.36 1963.78 763.094 1678.32 313.999 1678.32C-135.095 1678.32 -543.362 1963.78 -690.339 2396.03C-690.339 2404.19 -698.504 2404.19 -698.504 2404.19H-1163.93C-1163.93 2404.19 -1172.09 2404.19 -1172.09 2396.03V2387.88C-1098.61 2061.65 -910.803 1768.04 -649.512 1555.99C-380.055 1335.78 -28.9449 1205.28 322.165 1205.28C730.433 1205.28 1114.2 1360.24 1399.99 1653.85C1408.16 1662.01 1424.49 1678.32 1432.65 1686.48C1440.82 1694.63 1457.15 1710.95 1465.31 1719.1C1522.47 1776.19 1563.3 1808.81 1636.79 1849.59C1644.95 1857.75 1661.28 1857.75 1677.61 1865.91C1783.76 1898.53 1898.08 1914.84 2012.39 1914.84C2061.39 1914.84 2094.05 1914.84 2151.2 1914.84H2175.7C2183.87 1914.84 2200.2 1906.68 2200.2 1898.53C2208.36 1890.37 2208.36 1874.06 2200.2 1865.91C2175.7 1808.82 2134.87 1719.1 2069.55 1621.23C2020.56 1539.67 1963.4 1458.12 1898.08 1392.87C1506.14 927.988 926.401 667 313.999 667C-184.087 667 -665.843 846.429 -1041.45 1172.66C-1417.06 1490.74 -1662.02 1939.31 -1735.5 2420.5C-1751.84 2518.37 -1760 2624.4 -1760 2730.42V2738.58V2746.73C-1760 2844.6 -1751.84 2942.47 -1735.5 3040.34C-1735.5 3056.65 -1719.17 3064.81 -1702.84 3064.81H-698.504C-690.339 3064.81 -690.339 3064.81 -690.339 3072.97C-543.362 3505.22 -135.095 3790.68 313.999 3790.68C771.259 3790.68 1171.36 3505.22 1318.34 3072.97C1318.34 3064.81 1326.5 3064.81 1326.5 3064.81H1791.93C1791.93 3064.81 1800.09 3064.81 1800.09 3072.97V3081.12C1726.61 3407.35 1538.8 3700.97 1277.51 3913.02C1008.05 4133.22 656.944 4263.72 305.834 4263.72C-102.433 4263.72 -486.205 4108.76 -771.992 3815.15C-780.158 3806.99 -796.488 3790.68 -804.654 3782.52C-812.819 3774.37 -829.15 3758.06 -837.315 3749.9C-894.473 3692.81 -935.299 3660.19 -1008.79 3619.41C-1016.95 3611.25 -1033.28 3611.25 -1049.61 3603.09C-1155.76 3570.47 -1270.08 3554.16 -1384.39 3554.16C-1433.39 3554.16 -1466.05 3554.16 -1523.21 3554.16H-1547.7C-1555.87 3554.16 -1572.2 3562.32 -1572.2 3570.47C-1580.36 3578.63 -1580.36 3594.94 -1572.2 3603.09C-1547.7 3660.18 -1506.87 3749.9 -1441.55 3847.77C-1392.56 3929.33 -1335.4 4010.89 -1270.08 4076.13C-878.142 4541.01 -298.402 4802 313.999 4802C812.086 4802 1293.84 4622.57 1669.45 4296.34C2045.06 3978.26 2290.02 3529.69 2363.5 3048.5C2379.83 2950.63 2388 2844.6 2388 2746.73V2730.42ZM-241.244 2901.7C-241.244 2885.38 -241.244 2877.23 -241.244 2860.92V2852.76C-241.244 2836.45 -249.409 2828.29 -249.409 2811.98C-249.409 2803.83 -249.409 2787.51 -249.409 2779.36V2771.2C-249.409 2763.05 -249.409 2746.74 -249.409 2738.58C-249.409 2730.42 -249.409 2714.11 -249.409 2705.95V2697.8C-249.409 2689.64 -249.409 2673.33 -249.409 2665.18C-249.409 2657.02 -249.41 2640.71 -241.244 2624.4V2616.24C-241.244 2599.93 -233.079 2591.77 -233.079 2583.62H-241.244H-233.079C-233.079 2575.46 -224.914 2559.15 -224.914 2550.99V2542.84C-216.748 2526.53 -216.748 2518.37 -208.583 2510.22C-200.417 2485.75 -184.087 2461.28 -167.756 2436.81C-61.6063 2273.7 118.031 2175.83 313.999 2175.83C509.968 2175.83 689.607 2273.7 795.756 2436.81C812.087 2461.28 820.252 2485.75 836.583 2510.22C844.748 2518.37 844.748 2534.68 852.913 2542.84V2550.99C861.079 2559.15 861.078 2575.46 861.078 2583.62C861.078 2591.77 869.244 2608.09 869.244 2616.24V2624.4C869.244 2640.71 877.41 2648.86 877.41 2665.18C877.41 2673.33 877.41 2689.64 877.41 2697.8V2705.95C877.41 2714.11 877.41 2730.42 877.41 2738.58C877.41 2746.74 877.41 2763.05 877.41 2771.2V2779.36C877.41 2795.67 877.41 2803.83 877.41 2811.98C877.41 2828.29 869.244 2836.45 869.244 2852.76V2860.92C869.244 2869.07 861.078 2885.38 861.078 2893.54C861.078 2901.7 852.913 2918.01 852.913 2926.16V2934.32C844.748 2950.63 844.748 2958.79 836.583 2966.94C828.418 2991.41 812.087 3015.88 795.756 3040.34C689.607 3203.46 509.968 3301.33 313.999 3301.33C118.031 3301.33 -61.6063 3203.46 -167.756 3040.34C-184.087 3015.88 -192.252 2991.41 -208.583 2966.94C-216.748 2958.79 -216.748 2942.47 -224.914 2934.32V2926.16C-233.079 2918.01 -233.079 2909.85 -241.244 2901.7Z" fill="url(#paint3_linear)"/>
<path d="M757 210C758.657 210 760 208.657 760 207C760 205.343 758.657 204 757 204C755.343 204 754 205.343 754 207C754 208.657 755.343 210 757 210Z" fill="#04986D"/>
<path d="M771 210C772.657 210 774 208.657 774 207C774 205.343 772.657 204 771 204C769.343 204 768 205.343 768 207C768 208.657 769.343 210 771 210Z" fill="#04986D"/>
<path d="M785 210C786.657 210 788 208.657 788 207C788 205.343 786.657 204 785 204C783.343 204 782 205.343 782 207C782 208.657 783.343 210 785 210Z" fill="#04986D"/>
<path d="M799 210C800.657 210 802 208.657 802 207C802 205.343 800.657 204 799 204C797.343 204 796 205.343 796 207C796 208.657 797.343 210 799 210Z" fill="#04986D"/>
<path d="M813 210C814.657 210 816 208.657 816 207C816 205.343 814.657 204 813 204C811.343 204 810 205.343 810 207C810 208.657 811.343 210 813 210Z" fill="#04986D"/>
<path d="M827 210C828.657 210 830 208.657 830 207C830 205.343 828.657 204 827 204C825.343 204 824 205.343 824 207C824 208.657 825.343 210 827 210Z" fill="#04986D"/>
<path d="M841 210C842.657 210 844 208.657 844 207C844 205.343 842.657 204 841 204C839.343 204 838 205.343 838 207C838 208.657 839.343 210 841 210Z" fill="#04986D"/>
<path d="M757 224C758.657 224 760 222.657 760 221C760 219.343 758.657 218 757 218C755.343 218 754 219.343 754 221C754 222.657 755.343 224 757 224Z" fill="#04986D"/>
<path d="M771 224C772.657 224 774 222.657 774 221C774 219.343 772.657 218 771 218C769.343 218 768 219.343 768 221C768 222.657 769.343 224 771 224Z" fill="#04986D"/>
<path d="M785 224C786.657 224 788 222.657 788 221C788 219.343 786.657 218 785 218C783.343 218 782 219.343 782 221C782 222.657 783.343 224 785 224Z" fill="#04986D"/>
<path d="M799 224C800.657 224 802 222.657 802 221C802 219.343 800.657 218 799 218C797.343 218 796 219.343 796 221C796 222.657 797.343 224 799 224Z" fill="#04986D"/>
<path d="M813 224C814.657 224 816 222.657 816 221C816 219.343 814.657 218 813 218C811.343 218 810 219.343 810 221C810 222.657 811.343 224 813 224Z" fill="#04986D"/>
<path d="M827 224C828.657 224 830 222.657 830 221C830 219.343 828.657 218 827 218C825.343 218 824 219.343 824 221C824 222.657 825.343 224 827 224Z" fill="#04986D"/>
<path d="M841 224C842.657 224 844 222.657 844 221C844 219.343 842.657 218 841 218C839.343 218 838 219.343 838 221C838 222.657 839.343 224 841 224Z" fill="#04986D"/>
<path d="M757 238C758.657 238 760 236.657 760 235C760 233.343 758.657 232 757 232C755.343 232 754 233.343 754 235C754 236.657 755.343 238 757 238Z" fill="#04986D"/>
<path d="M771 238C772.657 238 774 236.657 774 235C774 233.343 772.657 232 771 232C769.343 232 768 233.343 768 235C768 236.657 769.343 238 771 238Z" fill="#04986D"/>
<path d="M785 238C786.657 238 788 236.657 788 235C788 233.343 786.657 232 785 232C783.343 232 782 233.343 782 235C782 236.657 783.343 238 785 238Z" fill="#04986D"/>
<path d="M799 238C800.657 238 802 236.657 802 235C802 233.343 800.657 232 799 232C797.343 232 796 233.343 796 235C796 236.657 797.343 238 799 238Z" fill="#04986D"/>
<path d="M813 238C814.657 238 816 236.657 816 235C816 233.343 814.657 232 813 232C811.343 232 810 233.343 810 235C810 236.657 811.343 238 813 238Z" fill="#04986D"/>
<path d="M827 238C828.657 238 830 236.657 830 235C830 233.343 828.657 232 827 232C825.343 232 824 233.343 824 235C824 236.657 825.343 238 827 238Z" fill="#04986D"/>
<path d="M841 238C842.657 238 844 236.657 844 235C844 233.343 842.657 232 841 232C839.343 232 838 233.343 838 235C838 236.657 839.343 238 841 238Z" fill="#04986D"/>
<path d="M757 252C758.657 252 760 250.657 760 249C760 247.343 758.657 246 757 246C755.343 246 754 247.343 754 249C754 250.657 755.343 252 757 252Z" fill="#04986D"/>
<path d="M771 252C772.657 252 774 250.657 774 249C774 247.343 772.657 246 771 246C769.343 246 768 247.343 768 249C768 250.657 769.343 252 771 252Z" fill="#04986D"/>
<path d="M785 252C786.657 252 788 250.657 788 249C788 247.343 786.657 246 785 246C783.343 246 782 247.343 782 249C782 250.657 783.343 252 785 252Z" fill="#04986D"/>
<path d="M799 252C800.657 252 802 250.657 802 249C802 247.343 800.657 246 799 246C797.343 246 796 247.343 796 249C796 250.657 797.343 252 799 252Z" fill="#04986D"/>
<path d="M813 252C814.657 252 816 250.657 816 249C816 247.343 814.657 246 813 246C811.343 246 810 247.343 810 249C810 250.657 811.343 252 813 252Z" fill="#04986D"/>
<path d="M827 252C828.657 252 830 250.657 830 249C830 247.343 828.657 246 827 246C825.343 246 824 247.343 824 249C824 250.657 825.343 252 827 252Z" fill="#04986D"/>
<path d="M841 252C842.657 252 844 250.657 844 249C844 247.343 842.657 246 841 246C839.343 246 838 247.343 838 249C838 250.657 839.343 252 841 252Z" fill="#04986D"/>
<path d="M757 266C758.657 266 760 264.657 760 263C760 261.343 758.657 260 757 260C755.343 260 754 261.343 754 263C754 264.657 755.343 266 757 266Z" fill="#04986D"/>
<path d="M771 266C772.657 266 774 264.657 774 263C774 261.343 772.657 260 771 260C769.343 260 768 261.343 768 263C768 264.657 769.343 266 771 266Z" fill="#04986D"/>
<path d="M785 266C786.657 266 788 264.657 788 263C788 261.343 786.657 260 785 260C783.343 260 782 261.343 782 263C782 264.657 783.343 266 785 266Z" fill="#04986D"/>
<path d="M799 266C800.657 266 802 264.657 802 263C802 261.343 800.657 260 799 260C797.343 260 796 261.343 796 263C796 264.657 797.343 266 799 266Z" fill="#04986D"/>
<path d="M813 266C814.657 266 816 264.657 816 263C816 261.343 814.657 260 813 260C811.343 260 810 261.343 810 263C810 264.657 811.343 266 813 266Z" fill="#04986D"/>
<path d="M827 266C828.657 266 830 264.657 830 263C830 261.343 828.657 260 827 260C825.343 260 824 261.343 824 263C824 264.657 825.343 266 827 266Z" fill="#04986D"/>
<path d="M841 266C842.657 266 844 264.657 844 263C844 261.343 842.657 260 841 260C839.343 260 838 261.343 838 263C838 264.657 839.343 266 841 266Z" fill="#04986D"/>
<path d="M757 280C758.657 280 760 278.657 760 277C760 275.343 758.657 274 757 274C755.343 274 754 275.343 754 277C754 278.657 755.343 280 757 280Z" fill="#04986D"/>
<path d="M771 280C772.657 280 774 278.657 774 277C774 275.343 772.657 274 771 274C769.343 274 768 275.343 768 277C768 278.657 769.343 280 771 280Z" fill="#04986D"/>
<path d="M785 280C786.657 280 788 278.657 788 277C788 275.343 786.657 274 785 274C783.343 274 782 275.343 782 277C782 278.657 783.343 280 785 280Z" fill="#04986D"/>
<path d="M799 280C800.657 280 802 278.657 802 277C802 275.343 800.657 274 799 274C797.343 274 796 275.343 796 277C796 278.657 797.343 280 799 280Z" fill="#04986D"/>
<path d="M813 280C814.657 280 816 278.657 816 277C816 275.343 814.657 274 813 274C811.343 274 810 275.343 810 277C810 278.657 811.343 280 813 280Z" fill="#04986D"/>
<path d="M827 280C828.657 280 830 278.657 830 277C830 275.343 828.657 274 827 274C825.343 274 824 275.343 824 277C824 278.657 825.343 280 827 280Z" fill="#04986D"/>
<path d="M841 280C842.657 280 844 278.657 844 277C844 275.343 842.657 274 841 274C839.343 274 838 275.343 838 277C838 278.657 839.343 280 841 280Z" fill="#04986D"/>
<path d="M757 294C758.657 294 760 292.657 760 291C760 289.343 758.657 288 757 288C755.343 288 754 289.343 754 291C754 292.657 755.343 294 757 294Z" fill="#04986D"/>
<path d="M771 294C772.657 294 774 292.657 774 291C774 289.343 772.657 288 771 288C769.343 288 768 289.343 768 291C768 292.657 769.343 294 771 294Z" fill="#04986D"/>
<path d="M785 294C786.657 294 788 292.657 788 291C788 289.343 786.657 288 785 288C783.343 288 782 289.343 782 291C782 292.657 783.343 294 785 294Z" fill="#04986D"/>
<path d="M799 294C800.657 294 802 292.657 802 291C802 289.343 800.657 288 799 288C797.343 288 796 289.343 796 291C796 292.657 797.343 294 799 294Z" fill="#04986D"/>
<path d="M813 294C814.657 294 816 292.657 816 291C816 289.343 814.657 288 813 288C811.343 288 810 289.343 810 291C810 292.657 811.343 294 813 294Z" fill="#04986D"/>
<path d="M827 294C828.657 294 830 292.657 830 291C830 289.343 828.657 288 827 288C825.343 288 824 289.343 824 291C824 292.657 825.343 294 827 294Z" fill="#04986D"/>
<path d="M841 294C842.657 294 844 292.657 844 291C844 289.343 842.657 288 841 288C839.343 288 838 289.343 838 291C838 292.657 839.343 294 841 294Z" fill="#04986D"/>
<path d="M757 308C758.657 308 760 306.657 760 305C760 303.343 758.657 302 757 302C755.343 302 754 303.343 754 305C754 306.657 755.343 308 757 308Z" fill="#04986D"/>
<path d="M771 308C772.657 308 774 306.657 774 305C774 303.343 772.657 302 771 302C769.343 302 768 303.343 768 305C768 306.657 769.343 308 771 308Z" fill="#04986D"/>
<path d="M785 308C786.657 308 788 306.657 788 305C788 303.343 786.657 302 785 302C783.343 302 782 303.343 782 305C782 306.657 783.343 308 785 308Z" fill="#04986D"/>
<path d="M799 308C800.657 308 802 306.657 802 305C802 303.343 800.657 302 799 302C797.343 302 796 303.343 796 305C796 306.657 797.343 308 799 308Z" fill="#04986D"/>
<path d="M813 308C814.657 308 816 306.657 816 305C816 303.343 814.657 302 813 302C811.343 302 810 303.343 810 305C810 306.657 811.343 308 813 308Z" fill="#04986D"/>
<path d="M827 308C828.657 308 830 306.657 830 305C830 303.343 828.657 302 827 302C825.343 302 824 303.343 824 305C824 306.657 825.343 308 827 308Z" fill="#04986D"/>
<path d="M841 308C842.657 308 844 306.657 844 305C844 303.343 842.657 302 841 302C839.343 302 838 303.343 838 305C838 306.657 839.343 308 841 308Z" fill="#04986D"/>
<path d="M757 322C758.657 322 760 320.657 760 319C760 317.343 758.657 316 757 316C755.343 316 754 317.343 754 319C754 320.657 755.343 322 757 322Z" fill="#04986D"/>
<path d="M771 322C772.657 322 774 320.657 774 319C774 317.343 772.657 316 771 316C769.343 316 768 317.343 768 319C768 320.657 769.343 322 771 322Z" fill="#04986D"/>
<path d="M785 322C786.657 322 788 320.657 788 319C788 317.343 786.657 316 785 316C783.343 316 782 317.343 782 319C782 320.657 783.343 322 785 322Z" fill="#04986D"/>
<path d="M799 322C800.657 322 802 320.657 802 319C802 317.343 800.657 316 799 316C797.343 316 796 317.343 796 319C796 320.657 797.343 322 799 322Z" fill="#04986D"/>
<path d="M813 322C814.657 322 816 320.657 816 319C816 317.343 814.657 316 813 316C811.343 316 810 317.343 810 319C810 320.657 811.343 322 813 322Z" fill="#04986D"/>
<path d="M827 322C828.657 322 830 320.657 830 319C830 317.343 828.657 316 827 316C825.343 316 824 317.343 824 319C824 320.657 825.343 322 827 322Z" fill="#04986D"/>
<path d="M841 322C842.657 322 844 320.657 844 319C844 317.343 842.657 316 841 316C839.343 316 838 317.343 838 319C838 320.657 839.343 322 841 322Z" fill="#04986D"/>
<path d="M757 336C758.657 336 760 334.657 760 333C760 331.343 758.657 330 757 330C755.343 330 754 331.343 754 333C754 334.657 755.343 336 757 336Z" fill="#04986D"/>
<path d="M771 336C772.657 336 774 334.657 774 333C774 331.343 772.657 330 771 330C769.343 330 768 331.343 768 333C768 334.657 769.343 336 771 336Z" fill="#04986D"/>
<path d="M785 336C786.657 336 788 334.657 788 333C788 331.343 786.657 330 785 330C783.343 330 782 331.343 782 333C782 334.657 783.343 336 785 336Z" fill="#04986D"/>
<path d="M799 336C800.657 336 802 334.657 802 333C802 331.343 800.657 330 799 330C797.343 330 796 331.343 796 333C796 334.657 797.343 336 799 336Z" fill="#04986D"/>
<path d="M813 336C814.657 336 816 334.657 816 333C816 331.343 814.657 330 813 330C811.343 330 810 331.343 810 333C810 334.657 811.343 336 813 336Z" fill="#04986D"/>
<path d="M827 336C828.657 336 830 334.657 830 333C830 331.343 828.657 330 827 330C825.343 330 824 331.343 824 333C824 334.657 825.343 336 827 336Z" fill="#04986D"/>
<path d="M841 336C842.657 336 844 334.657 844 333C844 331.343 842.657 330 841 330C839.343 330 838 331.343 838 333C838 334.657 839.343 336 841 336Z" fill="#04986D"/>
<path d="M757 350C758.657 350 760 348.657 760 347C760 345.343 758.657 344 757 344C755.343 344 754 345.343 754 347C754 348.657 755.343 350 757 350Z" fill="#04986D"/>
<path d="M771 350C772.657 350 774 348.657 774 347C774 345.343 772.657 344 771 344C769.343 344 768 345.343 768 347C768 348.657 769.343 350 771 350Z" fill="#04986D"/>
<path d="M785 350C786.657 350 788 348.657 788 347C788 345.343 786.657 344 785 344C783.343 344 782 345.343 782 347C782 348.657 783.343 350 785 350Z" fill="#04986D"/>
<path d="M799 350C800.657 350 802 348.657 802 347C802 345.343 800.657 344 799 344C797.343 344 796 345.343 796 347C796 348.657 797.343 350 799 350Z" fill="#04986D"/>
<path d="M813 350C814.657 350 816 348.657 816 347C816 345.343 814.657 344 813 344C811.343 344 810 345.343 810 347C810 348.657 811.343 350 813 350Z" fill="#04986D"/>
<path d="M827 350C828.657 350 830 348.657 830 347C830 345.343 828.657 344 827 344C825.343 344 824 345.343 824 347C824 348.657 825.343 350 827 350Z" fill="#04986D"/>
<path d="M841 350C842.657 350 844 348.657 844 347C844 345.343 842.657 344 841 344C839.343 344 838 345.343 838 347C838 348.657 839.343 350 841 350Z" fill="#04986D"/>
<path d="M757 364C758.657 364 760 362.657 760 361C760 359.343 758.657 358 757 358C755.343 358 754 359.343 754 361C754 362.657 755.343 364 757 364Z" fill="#04986D"/>
<path d="M771 364C772.657 364 774 362.657 774 361C774 359.343 772.657 358 771 358C769.343 358 768 359.343 768 361C768 362.657 769.343 364 771 364Z" fill="#04986D"/>
<path d="M785 364C786.657 364 788 362.657 788 361C788 359.343 786.657 358 785 358C783.343 358 782 359.343 782 361C782 362.657 783.343 364 785 364Z" fill="#04986D"/>
<path d="M799 364C800.657 364 802 362.657 802 361C802 359.343 800.657 358 799 358C797.343 358 796 359.343 796 361C796 362.657 797.343 364 799 364Z" fill="#04986D"/>
<path d="M813 364C814.657 364 816 362.657 816 361C816 359.343 814.657 358 813 358C811.343 358 810 359.343 810 361C810 362.657 811.343 364 813 364Z" fill="#04986D"/>
<path d="M827 364C828.657 364 830 362.657 830 361C830 359.343 828.657 358 827 358C825.343 358 824 359.343 824 361C824 362.657 825.343 364 827 364Z" fill="#04986D"/>
<path d="M841 364C842.657 364 844 362.657 844 361C844 359.343 842.657 358 841 358C839.343 358 838 359.343 838 361C838 362.657 839.343 364 841 364Z" fill="#04986D"/>
<path d="M855 210C856.657 210 858 208.657 858 207C858 205.343 856.657 204 855 204C853.343 204 852 205.343 852 207C852 208.657 853.343 210 855 210Z" fill="#04986D"/>
<path d="M869 210C870.657 210 872 208.657 872 207C872 205.343 870.657 204 869 204C867.343 204 866 205.343 866 207C866 208.657 867.343 210 869 210Z" fill="#04986D"/>
<path d="M883 210C884.657 210 886 208.657 886 207C886 205.343 884.657 204 883 204C881.343 204 880 205.343 880 207C880 208.657 881.343 210 883 210Z" fill="#04986D"/>
<path d="M897 210C898.657 210 900 208.657 900 207C900 205.343 898.657 204 897 204C895.343 204 894 205.343 894 207C894 208.657 895.343 210 897 210Z" fill="#04986D"/>
<path d="M911 210C912.657 210 914 208.657 914 207C914 205.343 912.657 204 911 204C909.343 204 908 205.343 908 207C908 208.657 909.343 210 911 210Z" fill="#04986D"/>
<path d="M925 210C926.657 210 928 208.657 928 207C928 205.343 926.657 204 925 204C923.343 204 922 205.343 922 207C922 208.657 923.343 210 925 210Z" fill="#04986D"/>
<path d="M939 210C940.657 210 942 208.657 942 207C942 205.343 940.657 204 939 204C937.343 204 936 205.343 936 207C936 208.657 937.343 210 939 210Z" fill="#04986D"/>
<path d="M855 224C856.657 224 858 222.657 858 221C858 219.343 856.657 218 855 218C853.343 218 852 219.343 852 221C852 222.657 853.343 224 855 224Z" fill="#04986D"/>
<path d="M869 224C870.657 224 872 222.657 872 221C872 219.343 870.657 218 869 218C867.343 218 866 219.343 866 221C866 222.657 867.343 224 869 224Z" fill="#04986D"/>
<path d="M883 224C884.657 224 886 222.657 886 221C886 219.343 884.657 218 883 218C881.343 218 880 219.343 880 221C880 222.657 881.343 224 883 224Z" fill="#04986D"/>
<path d="M897 224C898.657 224 900 222.657 900 221C900 219.343 898.657 218 897 218C895.343 218 894 219.343 894 221C894 222.657 895.343 224 897 224Z" fill="#04986D"/>
<path d="M911 224C912.657 224 914 222.657 914 221C914 219.343 912.657 218 911 218C909.343 218 908 219.343 908 221C908 222.657 909.343 224 911 224Z" fill="#04986D"/>
<path d="M925 224C926.657 224 928 222.657 928 221C928 219.343 926.657 218 925 218C923.343 218 922 219.343 922 221C922 222.657 923.343 224 925 224Z" fill="#04986D"/>
<path d="M939 224C940.657 224 942 222.657 942 221C942 219.343 940.657 218 939 218C937.343 218 936 219.343 936 221C936 222.657 937.343 224 939 224Z" fill="#04986D"/>
<path d="M855 238C856.657 238 858 236.657 858 235C858 233.343 856.657 232 855 232C853.343 232 852 233.343 852 235C852 236.657 853.343 238 855 238Z" fill="#04986D"/>
<path d="M869 238C870.657 238 872 236.657 872 235C872 233.343 870.657 232 869 232C867.343 232 866 233.343 866 235C866 236.657 867.343 238 869 238Z" fill="#04986D"/>
<path d="M883 238C884.657 238 886 236.657 886 235C886 233.343 884.657 232 883 232C881.343 232 880 233.343 880 235C880 236.657 881.343 238 883 238Z" fill="#04986D"/>
<path d="M897 238C898.657 238 900 236.657 900 235C900 233.343 898.657 232 897 232C895.343 232 894 233.343 894 235C894 236.657 895.343 238 897 238Z" fill="#04986D"/>
<path d="M911 238C912.657 238 914 236.657 914 235C914 233.343 912.657 232 911 232C909.343 232 908 233.343 908 235C908 236.657 909.343 238 911 238Z" fill="#04986D"/>
<path d="M925 238C926.657 238 928 236.657 928 235C928 233.343 926.657 232 925 232C923.343 232 922 233.343 922 235C922 236.657 923.343 238 925 238Z" fill="#04986D"/>
<path d="M939 238C940.657 238 942 236.657 942 235C942 233.343 940.657 232 939 232C937.343 232 936 233.343 936 235C936 236.657 937.343 238 939 238Z" fill="#04986D"/>
<path d="M855 252C856.657 252 858 250.657 858 249C858 247.343 856.657 246 855 246C853.343 246 852 247.343 852 249C852 250.657 853.343 252 855 252Z" fill="#04986D"/>
<path d="M869 252C870.657 252 872 250.657 872 249C872 247.343 870.657 246 869 246C867.343 246 866 247.343 866 249C866 250.657 867.343 252 869 252Z" fill="#04986D"/>
<path d="M883 252C884.657 252 886 250.657 886 249C886 247.343 884.657 246 883 246C881.343 246 880 247.343 880 249C880 250.657 881.343 252 883 252Z" fill="#04986D"/>
<path d="M897 252C898.657 252 900 250.657 900 249C900 247.343 898.657 246 897 246C895.343 246 894 247.343 894 249C894 250.657 895.343 252 897 252Z" fill="#04986D"/>
<path d="M911 252C912.657 252 914 250.657 914 249C914 247.343 912.657 246 911 246C909.343 246 908 247.343 908 249C908 250.657 909.343 252 911 252Z" fill="#04986D"/>
<path d="M925 252C926.657 252 928 250.657 928 249C928 247.343 926.657 246 925 246C923.343 246 922 247.343 922 249C922 250.657 923.343 252 925 252Z" fill="#04986D"/>
<path d="M939 252C940.657 252 942 250.657 942 249C942 247.343 940.657 246 939 246C937.343 246 936 247.343 936 249C936 250.657 937.343 252 939 252Z" fill="#04986D"/>
<path d="M855 266C856.657 266 858 264.657 858 263C858 261.343 856.657 260 855 260C853.343 260 852 261.343 852 263C852 264.657 853.343 266 855 266Z" fill="#04986D"/>
<path d="M869 266C870.657 266 872 264.657 872 263C872 261.343 870.657 260 869 260C867.343 260 866 261.343 866 263C866 264.657 867.343 266 869 266Z" fill="#04986D"/>
<path d="M883 266C884.657 266 886 264.657 886 263C886 261.343 884.657 260 883 260C881.343 260 880 261.343 880 263C880 264.657 881.343 266 883 266Z" fill="#04986D"/>
<path d="M897 266C898.657 266 900 264.657 900 263C900 261.343 898.657 260 897 260C895.343 260 894 261.343 894 263C894 264.657 895.343 266 897 266Z" fill="#04986D"/>
<path d="M911 266C912.657 266 914 264.657 914 263C914 261.343 912.657 260 911 260C909.343 260 908 261.343 908 263C908 264.657 909.343 266 911 266Z" fill="#04986D"/>
<path d="M925 266C926.657 266 928 264.657 928 263C928 261.343 926.657 260 925 260C923.343 260 922 261.343 922 263C922 264.657 923.343 266 925 266Z" fill="#04986D"/>
<path d="M939 266C940.657 266 942 264.657 942 263C942 261.343 940.657 260 939 260C937.343 260 936 261.343 936 263C936 264.657 937.343 266 939 266Z" fill="#04986D"/>
<path d="M855 280C856.657 280 858 278.657 858 277C858 275.343 856.657 274 855 274C853.343 274 852 275.343 852 277C852 278.657 853.343 280 855 280Z" fill="#04986D"/>
<path d="M869 280C870.657 280 872 278.657 872 277C872 275.343 870.657 274 869 274C867.343 274 866 275.343 866 277C866 278.657 867.343 280 869 280Z" fill="#04986D"/>
<path d="M883 280C884.657 280 886 278.657 886 277C886 275.343 884.657 274 883 274C881.343 274 880 275.343 880 277C880 278.657 881.343 280 883 280Z" fill="#04986D"/>
<path d="M897 280C898.657 280 900 278.657 900 277C900 275.343 898.657 274 897 274C895.343 274 894 275.343 894 277C894 278.657 895.343 280 897 280Z" fill="#04986D"/>
<path d="M911 280C912.657 280 914 278.657 914 277C914 275.343 912.657 274 911 274C909.343 274 908 275.343 908 277C908 278.657 909.343 280 911 280Z" fill="#04986D"/>
<path d="M925 280C926.657 280 928 278.657 928 277C928 275.343 926.657 274 925 274C923.343 274 922 275.343 922 277C922 278.657 923.343 280 925 280Z" fill="#04986D"/>
<path d="M939 280C940.657 280 942 278.657 942 277C942 275.343 940.657 274 939 274C937.343 274 936 275.343 936 277C936 278.657 937.343 280 939 280Z" fill="#04986D"/>
<path d="M855 294C856.657 294 858 292.657 858 291C858 289.343 856.657 288 855 288C853.343 288 852 289.343 852 291C852 292.657 853.343 294 855 294Z" fill="#04986D"/>
<path d="M869 294C870.657 294 872 292.657 872 291C872 289.343 870.657 288 869 288C867.343 288 866 289.343 866 291C866 292.657 867.343 294 869 294Z" fill="#04986D"/>
<path d="M883 294C884.657 294 886 292.657 886 291C886 289.343 884.657 288 883 288C881.343 288 880 289.343 880 291C880 292.657 881.343 294 883 294Z" fill="#04986D"/>
<path d="M897 294C898.657 294 900 292.657 900 291C900 289.343 898.657 288 897 288C895.343 288 894 289.343 894 291C894 292.657 895.343 294 897 294Z" fill="#04986D"/>
<path d="M911 294C912.657 294 914 292.657 914 291C914 289.343 912.657 288 911 288C909.343 288 908 289.343 908 291C908 292.657 909.343 294 911 294Z" fill="#04986D"/>
<path d="M925 294C926.657 294 928 292.657 928 291C928 289.343 926.657 288 925 288C923.343 288 922 289.343 922 291C922 292.657 923.343 294 925 294Z" fill="#04986D"/>
<path d="M939 294C940.657 294 942 292.657 942 291C942 289.343 940.657 288 939 288C937.343 288 936 289.343 936 291C936 292.657 937.343 294 939 294Z" fill="#04986D"/>
<path d="M855 308C856.657 308 858 306.657 858 305C858 303.343 856.657 302 855 302C853.343 302 852 303.343 852 305C852 306.657 853.343 308 855 308Z" fill="#04986D"/>
<path d="M869 308C870.657 308 872 306.657 872 305C872 303.343 870.657 302 869 302C867.343 302 866 303.343 866 305C866 306.657 867.343 308 869 308Z" fill="#04986D"/>
<path d="M883 308C884.657 308 886 306.657 886 305C886 303.343 884.657 302 883 302C881.343 302 880 303.343 880 305C880 306.657 881.343 308 883 308Z" fill="#04986D"/>
<path d="M897 308C898.657 308 900 306.657 900 305C900 303.343 898.657 302 897 302C895.343 302 894 303.343 894 305C894 306.657 895.343 308 897 308Z" fill="#04986D"/>
<path d="M911 308C912.657 308 914 306.657 914 305C914 303.343 912.657 302 911 302C909.343 302 908 303.343 908 305C908 306.657 909.343 308 911 308Z" fill="#04986D"/>
<path d="M925 308C926.657 308 928 306.657 928 305C928 303.343 926.657 302 925 302C923.343 302 922 303.343 922 305C922 306.657 923.343 308 925 308Z" fill="#04986D"/>
<path d="M939 308C940.657 308 942 306.657 942 305C942 303.343 940.657 302 939 302C937.343 302 936 303.343 936 305C936 306.657 937.343 308 939 308Z" fill="#04986D"/>
<path d="M855 322C856.657 322 858 320.657 858 319C858 317.343 856.657 316 855 316C853.343 316 852 317.343 852 319C852 320.657 853.343 322 855 322Z" fill="#04986D"/>
<path d="M869 322C870.657 322 872 320.657 872 319C872 317.343 870.657 316 869 316C867.343 316 866 317.343 866 319C866 320.657 867.343 322 869 322Z" fill="#04986D"/>
<path d="M883 322C884.657 322 886 320.657 886 319C886 317.343 884.657 316 883 316C881.343 316 880 317.343 880 319C880 320.657 881.343 322 883 322Z" fill="#04986D"/>
<path d="M897 322C898.657 322 900 320.657 900 319C900 317.343 898.657 316 897 316C895.343 316 894 317.343 894 319C894 320.657 895.343 322 897 322Z" fill="#04986D"/>
<path d="M911 322C912.657 322 914 320.657 914 319C914 317.343 912.657 316 911 316C909.343 316 908 317.343 908 319C908 320.657 909.343 322 911 322Z" fill="#04986D"/>
<path d="M925 322C926.657 322 928 320.657 928 319C928 317.343 926.657 316 925 316C923.343 316 922 317.343 922 319C922 320.657 923.343 322 925 322Z" fill="#04986D"/>
<path d="M939 322C940.657 322 942 320.657 942 319C942 317.343 940.657 316 939 316C937.343 316 936 317.343 936 319C936 320.657 937.343 322 939 322Z" fill="#04986D"/>
<path d="M855 336C856.657 336 858 334.657 858 333C858 331.343 856.657 330 855 330C853.343 330 852 331.343 852 333C852 334.657 853.343 336 855 336Z" fill="#04986D"/>
<path d="M869 336C870.657 336 872 334.657 872 333C872 331.343 870.657 330 869 330C867.343 330 866 331.343 866 333C866 334.657 867.343 336 869 336Z" fill="#04986D"/>
<path d="M883 336C884.657 336 886 334.657 886 333C886 331.343 884.657 330 883 330C881.343 330 880 331.343 880 333C880 334.657 881.343 336 883 336Z" fill="#04986D"/>
<path d="M897 336C898.657 336 900 334.657 900 333C900 331.343 898.657 330 897 330C895.343 330 894 331.343 894 333C894 334.657 895.343 336 897 336Z" fill="#04986D"/>
<path d="M911 336C912.657 336 914 334.657 914 333C914 331.343 912.657 330 911 330C909.343 330 908 331.343 908 333C908 334.657 909.343 336 911 336Z" fill="#04986D"/>
<path d="M925 336C926.657 336 928 334.657 928 333C928 331.343 926.657 330 925 330C923.343 330 922 331.343 922 333C922 334.657 923.343 336 925 336Z" fill="#04986D"/>
<path d="M939 336C940.657 336 942 334.657 942 333C942 331.343 940.657 330 939 330C937.343 330 936 331.343 936 333C936 334.657 937.343 336 939 336Z" fill="#04986D"/>
<path d="M855 350C856.657 350 858 348.657 858 347C858 345.343 856.657 344 855 344C853.343 344 852 345.343 852 347C852 348.657 853.343 350 855 350Z" fill="#04986D"/>
<path d="M869 350C870.657 350 872 348.657 872 347C872 345.343 870.657 344 869 344C867.343 344 866 345.343 866 347C866 348.657 867.343 350 869 350Z" fill="#04986D"/>
<path d="M883 350C884.657 350 886 348.657 886 347C886 345.343 884.657 344 883 344C881.343 344 880 345.343 880 347C880 348.657 881.343 350 883 350Z" fill="#04986D"/>
<path d="M897 350C898.657 350 900 348.657 900 347C900 345.343 898.657 344 897 344C895.343 344 894 345.343 894 347C894 348.657 895.343 350 897 350Z" fill="#04986D"/>
<path d="M911 350C912.657 350 914 348.657 914 347C914 345.343 912.657 344 911 344C909.343 344 908 345.343 908 347C908 348.657 909.343 350 911 350Z" fill="#04986D"/>
<path d="M925 350C926.657 350 928 348.657 928 347C928 345.343 926.657 344 925 344C923.343 344 922 345.343 922 347C922 348.657 923.343 350 925 350Z" fill="#04986D"/>
<path d="M939 350C940.657 350 942 348.657 942 347C942 345.343 940.657 344 939 344C937.343 344 936 345.343 936 347C936 348.657 937.343 350 939 350Z" fill="#04986D"/>
<path d="M855 364C856.657 364 858 362.657 858 361C858 359.343 856.657 358 855 358C853.343 358 852 359.343 852 361C852 362.657 853.343 364 855 364Z" fill="#04986D"/>
<path d="M869 364C870.657 364 872 362.657 872 361C872 359.343 870.657 358 869 358C867.343 358 866 359.343 866 361C866 362.657 867.343 364 869 364Z" fill="#04986D"/>
<path d="M883 364C884.657 364 886 362.657 886 361C886 359.343 884.657 358 883 358C881.343 358 880 359.343 880 361C880 362.657 881.343 364 883 364Z" fill="#04986D"/>
<path d="M897 364C898.657 364 900 362.657 900 361C900 359.343 898.657 358 897 358C895.343 358 894 359.343 894 361C894 362.657 895.343 364 897 364Z" fill="#04986D"/>
<path d="M911 364C912.657 364 914 362.657 914 361C914 359.343 912.657 358 911 358C909.343 358 908 359.343 908 361C908 362.657 909.343 364 911 364Z" fill="#04986D"/>
<path d="M925 364C926.657 364 928 362.657 928 361C928 359.343 926.657 358 925 358C923.343 358 922 359.343 922 361C922 362.657 923.343 364 925 364Z" fill="#04986D"/>
<path d="M939 364C940.657 364 942 362.657 942 361C942 359.343 940.657 358 939 358C937.343 358 936 359.343 936 361C936 362.657 937.343 364 939 364Z" fill="#04986D"/>
</g>
<defs>
<linearGradient id="paint0_linear" x1="720" y1="0" x2="720" y2="951.001" gradientUnits="userSpaceOnUse">
<stop stop-color="#1C1B7E"/>
<stop offset="1" stop-color="#1E1079"/>
</linearGradient>
<linearGradient id="paint1_linear" x1="720" y1="0" x2="720" y2="951.001" gradientUnits="userSpaceOnUse">
<stop stop-color="#04986D"/>
<stop offset="1" stop-color="#05CC92"/>
</linearGradient>
<linearGradient id="paint2_linear" x1="2244" y1="41.4213" x2="635" y2="41.4213" gradientUnits="userSpaceOnUse">
<stop stop-color="#04986D"/>
<stop offset="1" stop-color="#05CC92"/>
</linearGradient>
<linearGradient id="paint3_linear" x1="420.453" y1="667" x2="420.453" y2="4802" gradientUnits="userSpaceOnUse">
<stop stop-color="#04986D"/>
<stop offset="1" stop-color="#05CC92"/>
</linearGradient>
</defs>
</svg>
