<svg width="40" height="40" viewBox="0 0 40 40" fill="none" xmlns="http://www.w3.org/2000/svg">
<rect width="40" height="40" rx="10" fill="#04986D"/>
<path fill-rule="evenodd" clip-rule="evenodd" d="M16.9937 13.9897V13.9897C16.9937 12.33 18.3392 10.9834 19.9999 10.9834V10.9834C21.6596 10.9834 23.0062 12.3289 23.0062 13.9897V13.9897C23.0062 15.6493 21.6607 16.9959 19.9999 16.9959V16.9959C18.3392 16.9938 16.9937 15.6483 16.9937 13.9897Z" stroke="white" stroke-width="1.5" stroke-linecap="round" stroke-linejoin="round"/>
<path fill-rule="evenodd" clip-rule="evenodd" d="M9.7085 26.0103V26.0103C9.7085 24.3507 11.054 23.0041 12.7147 23.0041V23.0041C14.3744 23.0041 15.721 24.3496 15.721 26.0103V26.0103C15.7199 27.67 14.3755 29.0166 12.7147 29.0166V29.0166C11.054 29.0166 9.7085 27.6711 9.7085 26.0103Z" stroke="white" stroke-width="1.5" stroke-linecap="round" stroke-linejoin="round"/>
<path fill-rule="evenodd" clip-rule="evenodd" d="M24.2803 26.0103V26.0103C24.2803 24.3507 25.6258 23.0041 27.2865 23.0041V23.0041C28.9462 23.0041 30.2928 24.3496 30.2928 26.0103V26.0103C30.2928 27.67 28.9473 29.0166 27.2865 29.0166V29.0166C25.6247 29.0166 24.2803 27.6711 24.2803 26.0103H24.2803Z" stroke="white" stroke-width="1.5" stroke-linecap="round" stroke-linejoin="round"/>
<path d="M16.1975 19.9133L14.02 23.315" stroke="white" stroke-width="1.5" stroke-linecap="round" stroke-linejoin="round"/>
<path d="M21.625 16.5117L23.8025 19.9133" stroke="white" stroke-width="1.5" stroke-linecap="round" stroke-linejoin="round"/>
<path d="M24.2792 26.0125H20" stroke="white" stroke-width="1.5" stroke-linecap="round" stroke-linejoin="round"/>
</svg>
