<svg width="40" height="40" viewBox="0 0 40 40" fill="none" xmlns="http://www.w3.org/2000/svg">
<rect width="40" height="40" rx="10" fill="#04986D"/>
<path fill-rule="evenodd" clip-rule="evenodd" d="M25.4165 29.75H14.5832C13.3861 29.75 12.4165 28.7804 12.4165 27.5833V18.9167C12.4165 17.7196 13.3861 16.75 14.5832 16.75H25.4165C26.6136 16.75 27.5832 17.7196 27.5832 18.9167V27.5833C27.5832 28.7804 26.6136 29.75 25.4165 29.75Z" stroke="white" stroke-width="1.5" stroke-linecap="round" stroke-linejoin="round"/>
<path d="M19.9997 25.5142V22.7083" stroke="white" stroke-width="1.5" stroke-linecap="round" stroke-linejoin="round"/>
<path d="M20.5745 21.3213C20.8918 21.6386 20.8918 22.1531 20.5745 22.4704C20.2572 22.7877 19.7428 22.7877 19.4255 22.4704C19.1082 22.1531 19.1082 21.6386 19.4255 21.3213C19.7428 21.004 20.2572 21.004 20.5745 21.3213" stroke="white" stroke-width="1.5" stroke-linecap="round" stroke-linejoin="round"/>
<path d="M15.6665 16.75V14.5833V14.5833C15.6665 12.1902 17.6068 10.25 19.9998 10.25V10.25C22.3929 10.25 24.3332 12.1902 24.3332 14.5833V14.5833V16.75" stroke="white" stroke-width="1.5" stroke-linecap="round" stroke-linejoin="round"/>
</svg>
