<svg width="168" height="30" viewBox="0 0 168 30" fill="none" xmlns="http://www.w3.org/2000/svg">
<path d="M57.3909 20.2326H56.1951C55.2055 20.2326 54.2984 19.7811 53.7211 19.0014L51.9069 16.539L50.0926 19.0014C49.5153 19.7811 48.6082 20.2326 47.6186 20.2326H46.4229L50.5049 14.6512L46.629 9.35706H47.8248C48.8144 9.35706 49.7215 9.80849 50.2988 10.5882L51.9069 12.7633L53.515 10.5882C54.0922 9.80849 54.9994 9.35706 55.989 9.35706H57.1847L53.3088 14.6512L57.3909 20.2326Z" fill="#04986D"/>
<path d="M81.8421 8.98767C83.0791 8.98767 84.1099 9.39807 84.8521 10.1778C85.6355 10.9986 86.0066 12.0656 86.0066 13.42V17.8933C86.0066 19.1655 84.9346 20.2325 83.6563 20.2325H83.6151V13.5841C83.6151 12.8044 83.4089 12.2298 83.0378 11.8194C82.6667 11.409 82.1307 11.2038 81.471 11.2038C80.7288 11.2038 80.1515 11.4501 79.6979 11.9425C79.2444 12.435 79.0382 13.1327 79.0382 14.1176V17.9343C79.0382 19.2065 77.9661 20.2736 76.6879 20.2736V13.5841C76.6879 12.8044 76.523 12.2298 76.1519 11.8194C75.7808 11.409 75.286 11.2038 74.6263 11.2038C73.9253 11.2038 73.3068 11.4501 72.8532 11.9425C72.3997 12.435 72.1523 13.1737 72.1523 14.1176V17.9343C72.1523 19.2065 71.0802 20.2736 69.802 20.2736H69.7607V9.27495H72.1523V10.5882C72.8532 9.52119 73.9253 8.98767 75.3272 8.98767C76.7292 8.98767 77.8012 9.56223 78.4609 10.7113C79.2031 9.56223 80.3164 8.98767 81.8421 8.98767Z" fill="#04986D"/>
<path d="M132.806 14.6512V20.1916C132.806 20.2326 132.847 20.2737 132.847 20.2737C134.167 20.2737 135.239 19.2066 135.239 17.8934V14.6923C135.239 13.0917 136.847 11.7374 138.785 11.7374V9.27502C135.528 9.27502 132.806 11.6553 132.806 14.6512Z" fill="#04986D"/>
<path d="M41.8045 9.27488C38.7533 9.27488 36.2793 11.7783 36.2793 14.8563C36.2793 16.2927 36.8566 17.647 37.8462 18.714C38.9595 19.781 40.4439 20.3146 41.9695 20.2735C43.9899 20.2735 45.5155 19.4938 46.5876 18.0163V17.9753C46.5876 17.9753 46.5876 17.9343 46.5464 17.9343L44.6909 16.8672C44.6496 16.8672 44.6496 16.8672 44.6084 16.8672C43.9899 17.688 43.0003 18.1805 41.9695 18.0984C41.186 18.1395 40.4439 17.8932 39.8254 17.4828C39.2481 17.0724 38.877 16.4568 38.7121 15.8002H46.9175C46.9587 15.8002 46.9587 15.8002 46.9587 15.7592C46.9999 15.4308 47.0412 15.1436 47.0412 14.8152C47.0824 13.3788 46.5464 11.9835 45.5568 10.9165C44.6084 9.8084 43.2477 9.23384 41.8045 9.27488ZM44.6909 13.8303H38.7533C38.877 13.1326 39.2481 12.517 39.7841 12.0656C40.3614 11.6141 41.1036 11.3679 41.8045 11.4089C42.5055 11.4089 43.1652 11.6141 43.7013 12.0656C44.2373 12.517 44.6084 13.1326 44.6909 13.8303Z" fill="#04986D"/>
<path d="M92.9335 9.27488C89.841 9.27488 87.367 11.7783 87.4082 14.8563C87.4082 16.2927 87.9855 17.647 88.9751 18.714C90.0884 19.781 91.5728 20.3146 93.0984 20.2735C95.1188 20.2735 96.6445 19.4938 97.7165 18.0163V17.9753C97.7165 17.9753 97.7165 17.9343 97.6753 17.9343L95.8198 16.8672C95.7786 16.8672 95.7786 16.8672 95.7373 16.8672C95.1188 17.688 94.1292 18.1805 93.0984 18.0984C92.315 18.1395 91.5728 17.8932 90.9543 17.4828C90.377 17.0724 90.0059 16.4568 89.841 15.8002H98.0464C98.0876 15.8002 98.0876 15.8002 98.0876 15.7592C98.1289 15.4308 98.1701 15.1436 98.1701 14.8152C98.2113 13.3788 97.6753 11.9835 96.6857 10.9165C95.7373 9.8084 94.3354 9.23384 92.9335 9.27488ZM95.8198 13.8303H89.841C89.9647 13.1326 90.3358 12.517 90.8718 12.0656C91.4491 11.6141 92.1913 11.3679 92.8922 11.4089C93.5932 11.4089 94.2529 11.6141 94.789 12.0656C95.325 12.517 95.6961 13.1326 95.8198 13.8303Z" fill="#04986D"/>
<path d="M113.798 9.27488C110.705 9.27488 108.231 11.7783 108.272 14.8563C108.272 16.2927 108.85 17.647 109.839 18.714C110.953 19.781 112.437 20.3146 113.963 20.2735C115.983 20.2735 117.509 19.4938 118.581 18.0163V17.9753C118.581 17.9753 118.581 17.9343 118.54 17.9343L116.684 16.8672C116.643 16.8672 116.643 16.8672 116.602 16.8672C115.983 17.688 114.993 18.1805 113.963 18.0984C113.179 18.1395 112.437 17.8932 111.819 17.4828C111.241 17.0724 110.87 16.4568 110.705 15.8002H118.911C118.952 15.8002 118.952 15.8002 118.952 15.7592C118.993 15.4308 119.034 15.1436 119.034 14.8152C119.076 13.3788 118.54 11.9835 117.55 10.9165C116.602 9.8084 115.241 9.23384 113.798 9.27488ZM116.684 13.8303H110.705C110.829 13.1326 111.2 12.517 111.736 12.0656C112.313 11.6141 113.056 11.3679 113.756 11.4089C114.457 11.4089 115.117 11.6141 115.653 12.0656C116.23 12.517 116.56 13.1326 116.684 13.8303Z" fill="#04986D"/>
<path d="M67.8635 9.27499H65.5957C65.5545 9.27499 65.5545 9.31603 65.5545 9.31603V10.8755C64.6886 9.80851 63.3691 9.19291 61.9672 9.27499C60.5653 9.27499 59.2046 9.84955 58.2562 10.8755C56.1945 13.0506 56.1945 16.498 58.2562 18.6731C59.2046 19.6991 60.5653 20.2736 61.9672 20.2736C63.3691 20.3557 64.6886 19.7401 65.5545 18.632V20.1915C65.5545 20.2326 65.5957 20.2326 65.5957 20.2326H67.8635C67.9048 20.2326 67.9048 20.1915 67.9048 20.1915V9.31603C67.9048 9.27499 67.8635 9.27499 67.8635 9.27499ZM62.3383 17.9754C60.524 17.9754 59.0809 16.498 59.1221 14.6922C59.1221 12.8865 60.6065 11.4501 62.4208 11.4911C63.2454 11.4911 64.0701 11.8195 64.6473 12.394C65.9256 13.6252 65.9668 15.7182 64.6886 16.9904C64.0701 17.6471 63.2042 18.0164 62.3383 17.9754Z" fill="#04986D"/>
<path d="M106.953 9.23396H104.314V6.23806C104.314 6.23806 104.314 6.19702 104.273 6.19702H104.232L101.881 6.8947C101.84 6.8947 101.84 6.93574 101.84 6.97678V9.275H100.603C100.603 9.275 100.562 9.275 100.562 9.31604L99.0361 11.5732C99.0361 11.5732 99.0361 11.6143 99.0361 11.6553L99.0774 11.6963H101.799V16.7853C101.799 18.2216 102.211 19.2066 102.995 19.7401C103.737 20.1505 104.603 20.3557 105.469 20.3147C105.963 20.3147 106.417 20.2736 106.912 20.2326C106.953 20.2326 106.953 20.1916 106.953 20.1916V18.0985V18.0575H106.912C106.334 18.0985 105.84 18.0985 105.427 18.0575C105.097 18.0575 104.809 17.9344 104.561 17.7292C104.355 17.4829 104.232 17.1546 104.273 16.7853V11.6143H106.912C106.953 11.6143 106.953 11.5732 106.953 11.5322V9.275C106.994 9.275 106.994 9.23396 106.953 9.23396Z" fill="#04986D"/>
<path d="M153.093 16.3338H153.052C153.052 16.3338 153.011 16.3338 153.011 16.3749C152.763 16.8674 152.392 17.2367 151.939 17.524C151.444 17.8113 150.866 17.9344 150.33 17.9344C149.465 17.9344 148.681 17.6061 148.063 17.0315C146.867 15.7593 146.867 13.7483 148.063 12.4761C148.64 11.8605 149.465 11.5322 150.33 11.5732C150.908 11.5732 151.444 11.6964 151.939 11.9836C152.392 12.2709 152.763 12.6403 152.969 13.1328L153.011 13.1738H153.052L154.99 12.0657C155.031 12.0657 155.031 12.0247 155.031 11.9836C154.619 11.1628 153.959 10.4652 153.134 10.0137C152.268 9.52126 151.32 9.27502 150.33 9.27502C147.279 9.27502 144.805 11.7374 144.805 14.7743C144.805 17.8113 147.279 20.2737 150.33 20.2737C151.32 20.2737 152.268 20.0274 153.134 19.5349C153.959 19.0835 154.619 18.3858 155.072 17.565C155.072 17.524 155.072 17.483 155.031 17.483L153.093 16.3338Z" fill="#04986D"/>
<path d="M165.834 10.8756C163.649 8.78253 160.185 8.78253 158 10.8756C155.856 13.0507 155.856 16.498 158 18.6731C160.185 20.7661 163.649 20.7661 165.834 18.6731C167.978 16.498 167.978 13.0507 165.834 10.8756ZM158.742 14.7743C158.701 13.9125 159.031 13.0917 159.649 12.4761C160.927 11.2449 162.948 11.2859 164.185 12.5171C165.422 13.7894 165.38 15.8003 164.143 17.0315C162.906 18.2217 160.927 18.2217 159.649 17.0315C159.031 16.4569 158.701 15.6362 158.742 14.7743Z" fill="#04986D"/>
<path d="M129.796 10.8756C127.611 8.78253 124.147 8.78253 121.962 10.8756C119.818 13.0507 119.818 16.498 121.962 18.6731C124.147 20.7661 127.611 20.7661 129.796 18.6731C131.941 16.498 131.941 13.0507 129.796 10.8756ZM122.663 14.7743C122.622 13.9125 122.952 13.0917 123.57 12.4761C124.848 11.2449 126.869 11.2859 128.106 12.5171C129.343 13.7894 129.302 15.8003 128.065 17.0315C126.828 18.2217 124.848 18.2217 123.57 17.0315C122.993 16.4569 122.663 15.6362 122.663 14.7743Z" fill="#04986D"/>
<path d="M140.599 9.27502H142.99C143.032 9.27502 143.032 9.31606 143.032 9.3571V20.1916C143.032 20.2326 142.99 20.2737 142.99 20.2737H140.599C140.558 20.2737 140.558 20.2326 140.558 20.1916V9.31606C140.516 9.31606 140.558 9.27502 140.599 9.27502Z" fill="#04986D"/>
<path d="M140.599 4.88367H142.99C143.032 4.88367 143.032 4.92471 143.032 4.96575V7.30501C143.032 7.34605 142.99 7.38709 142.99 7.38709H140.599C140.558 7.38709 140.558 7.34605 140.558 7.30501V4.96575C140.516 4.92471 140.558 4.88367 140.599 4.88367Z" fill="#04986D"/>
<path d="M123.571 7.75644H128.231C128.272 7.75644 128.272 7.7154 128.272 7.67436V4.92471C128.272 4.92471 128.272 4.88367 128.231 4.88367H128.189L124.891 5.86862C124.066 6.11486 123.53 6.85357 123.489 7.7154C123.53 7.7154 123.53 7.75644 123.571 7.75644Z" fill="#04986D"/>
<path d="M29.9167 14.9693H29.8758H29.9167V14.9283C29.9167 14.2316 29.8758 13.5349 29.7528 12.8382C29.7528 12.7153 29.6299 12.6333 29.5069 12.6333H22.2941C22.2531 12.6333 22.2531 12.5924 22.2122 12.5924C20.8598 8.57613 16.4747 6.44508 12.4995 7.79748C10.2455 8.57613 8.48324 10.3383 7.70458 12.5924C7.70458 12.6333 7.6636 12.6333 7.62262 12.6333H4.30309C4.26211 12.6333 4.26211 12.6333 4.26211 12.5924C4.26211 12.5514 4.26211 12.5514 4.26211 12.5104C5.4096 7.55158 9.83564 4.02715 14.9584 4.02715C17.8681 4.02715 20.6548 5.17464 22.7039 7.22373C22.7859 7.30569 22.8679 7.38766 22.9498 7.46962L23.1957 7.71551C23.5646 8.08435 23.9744 8.4122 24.4662 8.61711C24.5481 8.65809 24.6301 8.69908 24.712 8.74006C25.4907 8.98595 26.3513 9.10889 27.171 9.10889C27.4988 9.10889 27.8267 9.10889 28.1545 9.06791H28.3184C28.4004 9.06791 28.4824 9.02693 28.5234 8.94497C28.5643 8.863 28.5643 8.78104 28.5234 8.74006C27.9906 7.5106 27.2529 6.32213 26.3513 5.29758C21.0237 -1.01362 11.5979 -1.79227 5.28666 3.53537C1.96713 6.40409 0 10.5842 0 14.9283V15.0513C0 15.748 0.0409818 16.4446 0.163927 17.1413C0.163927 17.2643 0.286873 17.3462 0.409818 17.3462H7.6636C7.70458 17.3462 7.74557 17.3872 7.74557 17.3872C9.09797 21.4034 13.483 23.5345 17.4583 22.1821C19.7123 21.4034 21.4745 19.6412 22.2531 17.3872C22.2531 17.3462 22.2941 17.3462 22.3351 17.3462H25.6546C25.6956 17.3462 25.6956 17.3462 25.6956 17.3872C25.6956 17.4282 25.6956 17.4282 25.6956 17.4692C24.5071 22.428 20.0811 25.9524 14.9584 25.9934C12.0487 25.9934 9.26189 24.8459 7.25378 22.7968C7.17182 22.7149 7.08986 22.6329 7.00789 22.5509C6.92593 22.469 6.84397 22.387 6.762 22.305C6.39317 21.9362 5.98335 21.6084 5.49156 21.4034C5.4096 21.3625 5.32764 21.3215 5.20469 21.2805C4.42604 21.0346 3.6064 20.9117 2.78676 20.9117C2.45891 20.9117 2.13106 20.9117 1.8032 20.9526H1.63927C1.55731 20.9526 1.47535 20.9936 1.43436 21.0756C1.39338 21.1576 1.39338 21.2395 1.43436 21.2805C4.87684 28.7802 13.7289 32.0587 21.2286 28.6572C26.5152 26.1573 29.9167 20.9117 29.9167 15.0922V14.9693ZM10.9421 16.1578C10.9421 16.0348 10.9421 15.9529 10.9012 15.8709V15.8299C10.8602 15.748 10.8602 15.666 10.8602 15.543C10.8602 15.4611 10.8192 15.3791 10.8192 15.2972V15.2152C10.8192 15.1332 10.8192 15.0513 10.8192 15.0103C10.8192 14.9693 10.8192 14.8464 10.8192 14.7644V14.6824C10.8192 14.6005 10.8192 14.5185 10.8602 14.4365V14.3956C10.8602 14.3136 10.9012 14.2316 10.9012 14.1087V14.0677C10.9421 13.9857 10.9421 13.9038 10.9831 13.8218H10.9421H10.9831C11.0241 13.7398 11.0241 13.6579 11.0651 13.5759C11.1061 13.494 11.1471 13.412 11.188 13.33C12.1306 11.2809 14.5895 10.3383 16.6796 11.3219C17.3763 11.6498 17.991 12.1825 18.4008 12.8382C18.5238 13.0022 18.6057 13.1661 18.6877 13.33C18.7287 13.412 18.7697 13.494 18.8107 13.5759V13.6169C18.8516 13.6989 18.8516 13.7808 18.8926 13.8628C18.9336 13.9448 18.9336 14.0267 18.9746 14.1087V14.1497C19.0156 14.2316 19.0156 14.3136 19.0156 14.4365V14.4775C19.0156 14.5595 19.0566 14.6414 19.0566 14.7234V14.8054C19.0566 14.8873 19.0566 14.9693 19.0566 15.0103C19.0566 15.0513 19.0566 15.1742 19.0566 15.2562V15.2972C19.0566 15.3791 19.0566 15.4611 19.0156 15.543V15.584C19.0156 15.666 18.9746 15.748 18.9746 15.8709V15.9119C18.9336 15.9938 18.9336 16.0758 18.8926 16.1578C18.8516 16.2397 18.8516 16.3217 18.8107 16.4037V16.4446C18.7697 16.5266 18.7287 16.6086 18.6877 16.6905C17.7041 18.7396 15.2452 19.6412 13.1961 18.6577C12.4995 18.3298 11.9257 17.838 11.5159 17.1823C11.3929 17.0184 11.311 16.8545 11.229 16.6905C11.188 16.6086 11.1471 16.5266 11.1061 16.4446V16.4037C11.0651 16.3217 11.0651 16.2397 11.0241 16.1578H10.9421Z" fill="#04986D"/>
</svg>
